<svg width="24" height="24" viewBox="0 0 24 24" fill="none" xmlns="http://www.w3.org/2000/svg">
<path d="M17.5 17C17.7761 17 18 16.7761 18 16.5C18 16.2239 17.7761 16 17.5 16V17ZM17.5 16H7.86159V17H17.5V16ZM7.86159 16L9.43412 13.2481L8.56588 12.7519L6.99335 15.5039L7.86159 16ZM7.86159 16H7.86159L6.99335 15.5039C6.6124 16.1705 7.09377 17 7.86159 17V16Z" fill="white"/>
<circle cx="8.5" cy="19.5" r="1.5" fill="white"/>
<circle cx="16.5" cy="19.5" r="1.5" fill="white"/>
<path d="M5.71937 5.65811C5.61145 5.33435 5.85243 5 6.19371 5H19.6126C20.2951 5 20.7771 5.6687 20.5613 6.31623L18 14H8.5L5.71937 5.65811Z" fill="white"/>
<path d="M3.5 3C3.22386 3 3 3.22386 3 3.5C3 3.77614 3.22386 4 3.5 4V3ZM3.5 4H5.16148V3H3.5V4ZM5.16148 4L6.03576 6.1857L6.96424 5.8143L6.08996 3.62861L5.16148 4ZM5.16148 4V4L6.08996 3.62861C5.9381 3.24895 5.57039 3 5.16148 3V4Z" fill="white"/>
</svg>
