<svg width="16" height="16" viewBox="0 0 16 16" fill="none" xmlns="http://www.w3.org/2000/svg">
<path d="M1 8H7V16H2C1.44772 16 1 15.5523 1 15V8Z" fill="#495057"/>
<path d="M15 8H9V16H14C14.5523 16 15 15.5523 15 15V8Z" fill="#495057"/>
<path d="M0 5C0 4.44772 0.447715 4 1 4H7V7H1C0.447715 7 0 6.55228 0 6V5Z" fill="#495057"/>
<path d="M16 5C16 4.44772 15.5523 4 15 4H9V7H15C15.5523 7 16 6.55228 16 6V5Z" fill="#495057"/>
<path d="M8 2.5V2.5041V2.50822V2.51237V2.51654V2.52074V2.52496V2.52921V2.53348V2.53778V2.5421V2.54644V2.55081V2.5552V2.55962V2.56405V2.56852V2.573V2.57751V2.58204V2.58659V2.59117V2.59577V2.60039V2.60504V2.6097V2.61439V2.6191V2.62383V2.62859V2.63336V2.63816V2.64298V2.64782V2.65268V2.65756V2.66246V2.66738V2.67232V2.67729V2.68227V2.68727V2.6923V2.69734V2.7024V2.70749V2.71259V2.71771V2.72285V2.72801V2.73319V2.73839V2.7436V2.74884V2.75409V2.75936V2.76465V2.76996V2.77528V2.78063V2.78599V2.79137V2.79676V2.80217V2.8076V2.81305V2.81852V2.824V2.82949V2.83501V2.84054V2.84608V2.85165V2.85722V2.86282V2.86843V2.87405V2.87969V2.88535V2.89102V2.89671V2.90241V2.90812V2.91385V2.9196V2.92536V2.93113V2.93692V2.94272V2.94854V2.95437V2.96021V2.96607V2.97193V2.97782V2.98371V2.98962V2.99554V3.00148V3.00743V3.01339V3.01936V3.02534V3.03134V3.03735V3.04337V3.0494V3.05544V3.06149V3.06756V3.07364V3.07972V3.08582V3.09193V3.09805V3.10418V3.11032V3.11647V3.12263V3.12881V3.13499V3.14118V3.14738V3.15359V3.15981V3.16603V3.17227V3.17852V3.18477V3.19103V3.19731V3.20359V3.20988V3.21617V3.22248V3.22879V3.23511V3.24144V3.24777V3.25412V3.26047V3.26682V3.27319V3.27956V3.28594V3.29232V3.29871V3.30511V3.31151V3.31792V3.32434V3.33076V3.33719V3.34362V3.35006V3.3565V3.36295V3.3694V3.37586V3.38232V3.38879V3.39526V3.40174V3.40822V3.4147V3.42119V3.42768V3.43418V3.44068V3.44718V3.45369V3.4602V3.46671V3.47323V3.47975V3.48627V3.49279V3.49932V3.50585V3.51238V3.51891V3.52545V3.53198V3.53852V3.54506V3.5516V3.55815V3.56469V3.57123V3.57778V3.58432V3.59087V3.59742V3.60397V3.61051V3.61706V3.62361V3.63016V3.6367V3.64325V3.6498V3.65634V3.66289V3.66943V3.67597V3.68251V3.68905V3.69559V3.70213V3.70866V3.7152V3.72173V3.72826V3.73479V3.74131V3.74783V3.75435V3.76087V3.76738V3.77389V3.7804V3.7869V3.79341V3.7999V3.8064V3.81289V3.81937V3.82585V3.83233V3.8388V3.84527V3.85174V3.8582V3.86465V3.8711V3.87754V3.88398V3.89042V3.89685V3.90327V3.90968V3.9161V3.9225V3.9289V3.93529V3.94168V3.94806V3.95443V3.9608V3.96715V3.97351V3.97985V3.98619V3.99252V3.99884V4.00516V4.01146V4.01776V4.02405V4.03034V4.03661V4.04288V4.04913V4.05538V4.06162V4.06785V4.07407V4.08028V4.08649V4.09268V4.09886V4.10504V4.1112V4.11735V4.1235V4.12963V4.13575V4.14186V4.14796V4.15406V4.16013V4.1662V4.17226V4.17831V4.18434V4.19036V4.19637V4.20237V4.20836V4.21433V4.2203V4.22625V4.23219V4.23811V4.24402V4.24992V4.25581V4.26168V4.26754V4.27339V4.27922V4.28504V4.29084V4.29664V4.30241V4.30818V4.31392V4.31966V4.32538V4.33108V4.33677V4.34245V4.34811V4.35375V4.35938V4.365V4.37059V4.37617V4.38174V4.38729V4.39283V4.39834V4.40384V4.40933V4.4148V4.42025V4.42568V4.4311V4.4365V4.44188V4.44725V4.4526V4.45793V4.46324V4.46853V4.47381V4.47907V4.4843V4.48953V4.49473V4.49991V4.5H8.00315H8.00916H8.01519H8.02125H8.02733H8.03344H8.03958H8.04574H8.05193H8.05814H8.06437H8.07063H8.07692H8.08323H8.08956H8.09592H8.1023H8.1087H8.11513H8.12158H8.12805H8.13455H8.14107H8.14761H8.15418H8.16076H8.16737H8.174H8.18065H8.18732H8.19402H8.20073H8.20747H8.21423H8.221H8.2278H8.23462H8.24146H8.24831H8.25519H8.26209H8.26901H8.27594H8.28289H8.28987H8.29686H8.30387H8.3109H8.31794H8.32501H8.33209H8.33919H8.34631H8.35344H8.36059H8.36776H8.37494H8.38214H8.38936H8.39659H8.40384H8.41111H8.41839H8.42568H8.433H8.44032H8.44766H8.45502H8.46239H8.46977H8.47717H8.48459H8.49201H8.49945H8.50691H8.51437H8.52185H8.52935H8.53685H8.54437H8.5519H8.55945H8.567H8.57457H8.58215H8.58974H8.59734H8.60495H8.61258H8.62021H8.62786H8.63551H8.64318H8.65086H8.65854H8.66624H8.67394H8.68166H8.68938H8.69712H8.70486H8.71261H8.72037H8.72814H8.73591H8.7437H8.75149H8.75929H8.76709H8.77491H8.78273H8.79056H8.79839H8.80623H8.81408H8.82194H8.8298H8.83766H8.84553H8.85341H8.8613H8.86918H8.87708H8.88497H8.89288H8.90078H8.90869H8.91661H8.92453H8.93245H8.94038H8.94831H8.95624H8.96418H8.97212H8.98006H8.988H8.99595H9.0039H9.01185H9.0198H9.02776H9.03571H9.04367H9.05163H9.05959H9.06755H9.07551H9.08347H9.09143H9.09939H9.10735H9.11531H9.12327H9.13123H9.13919H9.14715H9.1551H9.16306H9.17101H9.17896H9.18691H9.19486H9.20281H9.21075H9.21869H9.22663H9.23456H9.2425H9.25043H9.25835H9.26627H9.27419H9.2821H9.29001H9.29792H9.30582H9.31371H9.3216H9.32949H9.33737H9.34525H9.35312H9.36098H9.36884H9.37669H9.38454H9.39237H9.40021H9.40803H9.41585H9.42366H9.43147H9.43926H9.44705H9.45483H9.4626H9.47037H9.47812H9.48587H9.49361H9.50134H9.50906H9.51677H9.52447H9.53217H9.53985H9.54752H9.55518H9.56283H9.57048H9.57811H9.58573H9.59333H9.60093H9.60852H9.61609H9.62365H9.6312H9.63874H9.64627H9.65378H9.66128H9.66877H9.67625H9.68371H9.69116H9.69859H9.70601H9.71342H9.72081H9.72819H9.73556H9.74291H9.75024H9.75756H9.76487H9.77216H9.77943H9.78669H9.79393H9.80116H9.80837H9.81557H9.82274H9.82991H9.83705H9.84418H9.85129H9.85838H9.86545H9.87251H9.87955H9.88657H9.89357H9.90056H9.90752H9.91447H9.9214H9.92831H9.93519H9.94206H9.94891H9.95574H9.96255H9.96934H9.97611H9.98286H9.98959H9.9963H10.003H10.0096H10.0163H10.0229H10.0295H10.0361H10.0426H10.0492H10.0557H10.0622H10.0686H10.0751H10.0815H10.0879H10.0943H10.1006H10.1069H10.1132H10.1195H10.1258H10.132H10.1382H10.1444H10.1505H10.1566H10.1627H10.1688H10.1749H10.1809H10.1869H10.1928H10.1988H10.2047H10.2106H10.2165H10.2223H10.2281H10.2339H10.2396H10.2454H10.2511H10.2567H10.2624H10.268H10.2735H10.2791H10.2846H10.2901H10.2956H10.301H10.3064H10.3118H10.3171H10.3224H10.3277H10.333H10.3382H10.3434H10.3485H10.3537H10.3588H10.3638H10.3689H10.3739H10.3788H10.3838H10.3887H10.3935H10.3984H10.4032H10.4079H10.4127H10.4174H10.422H10.4267H10.4313H10.4358H10.4404H10.4448H10.4493H10.4537H10.4581H10.4625H10.4668H10.4711H10.4753H10.4795H10.4837H10.4878H10.4919H10.496H10.5C11.6046 4.5 12.5 3.60457 12.5 2.5C12.5 1.39543 11.6046 0.5 10.5 0.5C9.93397 0.5 9.29042 0.734205 8.79061 1.12581C8.2889 1.51891 8 2.01287 8 2.5Z" stroke="#495057"/>
<path d="M8 2.5V2.5041V2.50822V2.51237V2.51654V2.52074V2.52496V2.52921V2.53348V2.53778V2.5421V2.54644V2.55081V2.5552V2.55962V2.56405V2.56852V2.573V2.57751V2.58204V2.58659V2.59117V2.59577V2.60039V2.60504V2.6097V2.61439V2.6191V2.62383V2.62859V2.63336V2.63816V2.64298V2.64782V2.65268V2.65756V2.66246V2.66738V2.67232V2.67729V2.68227V2.68727V2.6923V2.69734V2.7024V2.70749V2.71259V2.71771V2.72285V2.72801V2.73319V2.73839V2.7436V2.74884V2.75409V2.75936V2.76465V2.76996V2.77528V2.78063V2.78599V2.79137V2.79676V2.80217V2.8076V2.81305V2.81852V2.824V2.82949V2.83501V2.84054V2.84608V2.85165V2.85722V2.86282V2.86843V2.87405V2.87969V2.88535V2.89102V2.89671V2.90241V2.90812V2.91385V2.9196V2.92536V2.93113V2.93692V2.94272V2.94854V2.95437V2.96021V2.96607V2.97193V2.97782V2.98371V2.98962V2.99554V3.00148V3.00743V3.01339V3.01936V3.02534V3.03134V3.03735V3.04337V3.0494V3.05544V3.06149V3.06756V3.07364V3.07972V3.08582V3.09193V3.09805V3.10418V3.11032V3.11647V3.12263V3.12881V3.13499V3.14118V3.14738V3.15359V3.15981V3.16603V3.17227V3.17852V3.18477V3.19103V3.19731V3.20359V3.20988V3.21617V3.22248V3.22879V3.23511V3.24144V3.24777V3.25412V3.26047V3.26682V3.27319V3.27956V3.28594V3.29232V3.29871V3.30511V3.31151V3.31792V3.32434V3.33076V3.33719V3.34362V3.35006V3.3565V3.36295V3.3694V3.37586V3.38232V3.38879V3.39526V3.40174V3.40822V3.4147V3.42119V3.42768V3.43418V3.44068V3.44718V3.45369V3.4602V3.46671V3.47323V3.47975V3.48627V3.49279V3.49932V3.50585V3.51238V3.51891V3.52545V3.53198V3.53852V3.54506V3.5516V3.55815V3.56469V3.57123V3.57778V3.58432V3.59087V3.59742V3.60397V3.61051V3.61706V3.62361V3.63016V3.6367V3.64325V3.6498V3.65634V3.66289V3.66943V3.67597V3.68251V3.68905V3.69559V3.70213V3.70866V3.7152V3.72173V3.72826V3.73479V3.74131V3.74783V3.75435V3.76087V3.76738V3.77389V3.7804V3.7869V3.79341V3.7999V3.8064V3.81289V3.81937V3.82585V3.83233V3.8388V3.84527V3.85174V3.8582V3.86465V3.8711V3.87754V3.88398V3.89042V3.89685V3.90327V3.90968V3.9161V3.9225V3.9289V3.93529V3.94168V3.94806V3.95443V3.9608V3.96715V3.97351V3.97985V3.98619V3.99252V3.99884V4.00516V4.01146V4.01776V4.02405V4.03034V4.03661V4.04288V4.04913V4.05538V4.06162V4.06785V4.07407V4.08028V4.08649V4.09268V4.09886V4.10504V4.1112V4.11735V4.1235V4.12963V4.13575V4.14186V4.14796V4.15406V4.16013V4.1662V4.17226V4.17831V4.18434V4.19036V4.19637V4.20237V4.20836V4.21433V4.2203V4.22625V4.23219V4.23811V4.24402V4.24992V4.25581V4.26168V4.26754V4.27339V4.27922V4.28504V4.29084V4.29664V4.30241V4.30818V4.31392V4.31966V4.32538V4.33108V4.33677V4.34245V4.34811V4.35375V4.35938V4.365V4.37059V4.37617V4.38174V4.38729V4.39283V4.39834V4.40384V4.40933V4.4148V4.42025V4.42568V4.4311V4.4365V4.44188V4.44725V4.4526V4.45793V4.46324V4.46853V4.47381V4.47907V4.4843V4.48953V4.49473V4.49991V4.5H7.99685H7.99084H7.98481H7.97875H7.97267H7.96656H7.96042H7.95426H7.94807H7.94186H7.93563H7.92937H7.92308H7.91677H7.91044H7.90408H7.8977H7.8913H7.88487H7.87842H7.87195H7.86545H7.85893H7.85239H7.84582H7.83924H7.83263H7.826H7.81935H7.81268H7.80598H7.79927H7.79253H7.78577H7.779H7.7722H7.76538H7.75854H7.75169H7.74481H7.73791H7.73099H7.72406H7.71711H7.71013H7.70314H7.69613H7.6891H7.68206H7.67499H7.66791H7.66081H7.65369H7.64656H7.63941H7.63224H7.62506H7.61786H7.61064H7.60341H7.59616H7.58889H7.58161H7.57432H7.567H7.55968H7.55234H7.54498H7.53761H7.53023H7.52283H7.51541H7.50799H7.50055H7.49309H7.48563H7.47815H7.47065H7.46315H7.45563H7.4481H7.44055H7.433H7.42543H7.41785H7.41026H7.40266H7.39505H7.38742H7.37979H7.37214H7.36449H7.35682H7.34914H7.34146H7.33376H7.32606H7.31834H7.31062H7.30288H7.29514H7.28739H7.27963H7.27186H7.26409H7.2563H7.24851H7.24071H7.23291H7.22509H7.21727H7.20944H7.20161H7.19377H7.18592H7.17806H7.1702H7.16234H7.15447H7.14659H7.1387H7.13082H7.12292H7.11503H7.10712H7.09922H7.09131H7.08339H7.07547H7.06755H7.05962H7.05169H7.04376H7.03582H7.02788H7.01994H7.012H7.00405H6.9961H6.98815H6.9802H6.97224H6.96429H6.95633H6.94837H6.94041H6.93245H6.92449H6.91653H6.90857H6.90061H6.89265H6.88469H6.87673H6.86877H6.86081H6.85285H6.8449H6.83694H6.82899H6.82104H6.81309H6.80514H6.79719H6.78925H6.78131H6.77337H6.76544H6.7575H6.74957H6.74165H6.73373H6.72581H6.7179H6.70999H6.70208H6.69418H6.68629H6.6784H6.67051H6.66263H6.65475H6.64688H6.63902H6.63116H6.62331H6.61546H6.60763H6.59979H6.59197H6.58415H6.57634H6.56853H6.56074H6.55295H6.54517H6.5374H6.52963H6.52188H6.51413H6.50639H6.49866H6.49094H6.48323H6.47553H6.46783H6.46015H6.45248H6.44482H6.43717H6.42952H6.42189H6.41427H6.40667H6.39907H6.39148H6.38391H6.37635H6.3688H6.36126H6.35373H6.34622H6.33872H6.33123H6.32375H6.31629H6.30884H6.30141H6.29399H6.28658H6.27919H6.27181H6.26444H6.25709H6.24976H6.24244H6.23513H6.22784H6.22057H6.21331H6.20607H6.19884H6.19163H6.18443H6.17726H6.17009H6.16295H6.15582H6.14871H6.14162H6.13455H6.12749H6.12045H6.11343H6.10643H6.09944H6.09248H6.08553H6.0786H6.07169H6.06481H6.05794H6.05109H6.04426H6.03745H6.03066H6.02389H6.01714H6.01041H6.0037H5.99702H5.99035H5.98371H5.97709H5.97049H5.96391H5.95736H5.95083H5.94431H5.93783H5.93136H5.92492H5.9185H5.91211H5.90574H5.89939H5.89307H5.88677H5.88049H5.87424H5.86801H5.86181H5.85564H5.84949H5.84336H5.83726H5.83119H5.82514H5.81912H5.81312H5.80715H5.80121H5.79529H5.7894H5.78354H5.77771H5.7719H5.76612H5.76037H5.75464H5.74895H5.74328H5.73764H5.73203H5.72645H5.7209H5.71538H5.70988H5.70442H5.69899H5.69358H5.68821H5.68287H5.67755H5.67227H5.66702H5.6618H5.65661H5.65145H5.64632H5.64123H5.63617H5.63114H5.62614H5.62117H5.61624H5.61134H5.60647H5.60164H5.59684H5.59207H5.58734H5.58263H5.57797H5.57334H5.56874H5.56418H5.55965H5.55516H5.5507H5.54627H5.54189H5.53753H5.53322H5.52894H5.52469H5.52049H5.51632H5.51218H5.50808H5.50402H5.5C4.39543 4.5 3.5 3.60457 3.5 2.5C3.5 1.39543 4.39543 0.5 5.5 0.5C6.06603 0.5 6.70958 0.734205 7.20939 1.12581C7.7111 1.51891 8 2.01287 8 2.5Z" stroke="#495057"/>
</svg>
