<svg width="24" height="24" viewBox="0 0 24 24" fill="none" xmlns="http://www.w3.org/2000/svg">
<g>
<path d="M5 12H11V20H6C5.44772 20 5 19.5523 5 19V12Z" fill="white"/>
<path d="M19 12H13V20H18C18.5523 20 19 19.5523 19 19V12Z" fill="white"/>
<path d="M4 9C4 8.44772 4.44772 8 5 8H11V11H5C4.44772 11 4 10.5523 4 10V9Z" fill="white"/>
<path d="M20 9C20 8.44772 19.5523 8 19 8H13V11H19C19.5523 11 20 10.5523 20 10V9Z" fill="white"/>
<path d="M12 6.5V6.5041V6.50822V6.51237V6.51654V6.52074V6.52496V6.52921V6.53348V6.53778V6.5421V6.54644V6.55081V6.5552V6.55962V6.56405V6.56852V6.573V6.57751V6.58204V6.58659V6.59117V6.59577V6.60039V6.60504V6.6097V6.61439V6.6191V6.62383V6.62859V6.63336V6.63816V6.64298V6.64782V6.65268V6.65756V6.66246V6.66738V6.67232V6.67729V6.68227V6.68727V6.6923V6.69734V6.7024V6.70749V6.71259V6.71771V6.72285V6.72801V6.73319V6.73839V6.7436V6.74884V6.75409V6.75936V6.76465V6.76996V6.77528V6.78063V6.78599V6.79137V6.79676V6.80217V6.8076V6.81305V6.81852V6.824V6.82949V6.83501V6.84054V6.84608V6.85165V6.85722V6.86282V6.86843V6.87405V6.87969V6.88535V6.89102V6.89671V6.90241V6.90812V6.91385V6.9196V6.92536V6.93113V6.93692V6.94272V6.94854V6.95437V6.96021V6.96607V6.97193V6.97782V6.98371V6.98962V6.99554V7.00148V7.00743V7.01339V7.01936V7.02534V7.03134V7.03735V7.04337V7.0494V7.05544V7.06149V7.06756V7.07364V7.07972V7.08582V7.09193V7.09805V7.10418V7.11032V7.11647V7.12263V7.12881V7.13499V7.14118V7.14738V7.15359V7.15981V7.16603V7.17227V7.17852V7.18477V7.19103V7.19731V7.20359V7.20988V7.21617V7.22248V7.22879V7.23511V7.24144V7.24777V7.25412V7.26047V7.26682V7.27319V7.27956V7.28594V7.29232V7.29871V7.30511V7.31151V7.31792V7.32434V7.33076V7.33719V7.34362V7.35006V7.3565V7.36295V7.3694V7.37586V7.38232V7.38879V7.39526V7.40174V7.40822V7.4147V7.42119V7.42768V7.43418V7.44068V7.44718V7.45369V7.4602V7.46671V7.47323V7.47975V7.48627V7.49279V7.49932V7.50585V7.51238V7.51891V7.52545V7.53198V7.53852V7.54506V7.5516V7.55815V7.56469V7.57123V7.57778V7.58432V7.59087V7.59742V7.60397V7.61051V7.61706V7.62361V7.63016V7.6367V7.64325V7.6498V7.65634V7.66289V7.66943V7.67597V7.68251V7.68905V7.69559V7.70213V7.70866V7.7152V7.72173V7.72826V7.73479V7.74131V7.74783V7.75435V7.76087V7.76738V7.77389V7.7804V7.7869V7.79341V7.7999V7.8064V7.81289V7.81937V7.82585V7.83233V7.8388V7.84527V7.85174V7.8582V7.86465V7.8711V7.87754V7.88398V7.89042V7.89685V7.90327V7.90968V7.9161V7.9225V7.9289V7.93529V7.94168V7.94806V7.95443V7.9608V7.96715V7.97351V7.97985V7.98619V7.99252V7.99884V8.00516V8.01146V8.01776V8.02405V8.03034V8.03661V8.04288V8.04913V8.05538V8.06162V8.06785V8.07407V8.08028V8.08649V8.09268V8.09886V8.10504V8.1112V8.11735V8.1235V8.12963V8.13575V8.14186V8.14796V8.15406V8.16013V8.1662V8.17226V8.17831V8.18434V8.19036V8.19637V8.20237V8.20836V8.21433V8.2203V8.22625V8.23219V8.23811V8.24402V8.24992V8.25581V8.26168V8.26754V8.27339V8.27922V8.28504V8.29084V8.29664V8.30241V8.30818V8.31392V8.31966V8.32538V8.33108V8.33677V8.34245V8.34811V8.35375V8.35938V8.365V8.37059V8.37617V8.38174V8.38729V8.39283V8.39834V8.40384V8.40933V8.4148V8.42025V8.42568V8.4311V8.4365V8.44188V8.44725V8.4526V8.45793V8.46324V8.46853V8.47381V8.47907V8.4843V8.48953V8.49473V8.49991V8.5H12.0032H12.0092H12.0152H12.0212H12.0273H12.0334H12.0396H12.0457H12.0519H12.0581H12.0644H12.0706H12.0769H12.0832H12.0896H12.0959H12.1023H12.1087H12.1151H12.1216H12.1281H12.1346H12.1411H12.1476H12.1542H12.1608H12.1674H12.174H12.1807H12.1873H12.194H12.2007H12.2075H12.2142H12.221H12.2278H12.2346H12.2415H12.2483H12.2552H12.2621H12.269H12.2759H12.2829H12.2899H12.2969H12.3039H12.3109H12.3179H12.325H12.3321H12.3392H12.3463H12.3534H12.3606H12.3678H12.3749H12.3821H12.3894H12.3966H12.4038H12.4111H12.4184H12.4257H12.433H12.4403H12.4477H12.455H12.4624H12.4698H12.4772H12.4846H12.492H12.4995H12.5069H12.5144H12.5219H12.5293H12.5369H12.5444H12.5519H12.5594H12.567H12.5746H12.5821H12.5897H12.5973H12.605H12.6126H12.6202H12.6279H12.6355H12.6432H12.6509H12.6585H12.6662H12.6739H12.6817H12.6894H12.6971H12.7049H12.7126H12.7204H12.7281H12.7359H12.7437H12.7515H12.7593H12.7671H12.7749H12.7827H12.7906H12.7984H12.8062H12.8141H12.8219H12.8298H12.8377H12.8455H12.8534H12.8613H12.8692H12.8771H12.885H12.8929H12.9008H12.9087H12.9166H12.9245H12.9325H12.9404H12.9483H12.9562H12.9642H12.9721H12.9801H12.988H12.9959H13.0039H13.0118H13.0198H13.0278H13.0357H13.0437H13.0516H13.0596H13.0675H13.0755H13.0835H13.0914H13.0994H13.1073H13.1153H13.1233H13.1312H13.1392H13.1471H13.1551H13.1631H13.171H13.179H13.1869H13.1949H13.2028H13.2108H13.2187H13.2266H13.2346H13.2425H13.2504H13.2584H13.2663H13.2742H13.2821H13.29H13.2979H13.3058H13.3137H13.3216H13.3295H13.3374H13.3452H13.3531H13.361H13.3688H13.3767H13.3845H13.3924H13.4002H13.408H13.4159H13.4237H13.4315H13.4393H13.4471H13.4548H13.4626H13.4704H13.4781H13.4859H13.4936H13.5013H13.5091H13.5168H13.5245H13.5322H13.5398H13.5475H13.5552H13.5628H13.5705H13.5781H13.5857H13.5933H13.6009H13.6085H13.6161H13.6237H13.6312H13.6387H13.6463H13.6538H13.6613H13.6688H13.6762H13.6837H13.6912H13.6986H13.706H13.7134H13.7208H13.7282H13.7356H13.7429H13.7502H13.7576H13.7649H13.7722H13.7794H13.7867H13.7939H13.8012H13.8084H13.8156H13.8227H13.8299H13.837H13.8442H13.8513H13.8584H13.8655H13.8725H13.8795H13.8866H13.8936H13.9006H13.9075H13.9145H13.9214H13.9283H13.9352H13.9421H13.9489H13.9557H13.9626H13.9693H13.9761H13.9829H13.9896H13.9963H14.003H14.0096H14.0163H14.0229H14.0295H14.0361H14.0426H14.0492H14.0557H14.0622H14.0686H14.0751H14.0815H14.0879H14.0943H14.1006H14.1069H14.1132H14.1195H14.1258H14.132H14.1382H14.1444H14.1505H14.1566H14.1627H14.1688H14.1749H14.1809H14.1869H14.1928H14.1988H14.2047H14.2106H14.2165H14.2223H14.2281H14.2339H14.2396H14.2454H14.2511H14.2567H14.2624H14.268H14.2735H14.2791H14.2846H14.2901H14.2956H14.301H14.3064H14.3118H14.3171H14.3224H14.3277H14.333H14.3382H14.3434H14.3485H14.3537H14.3588H14.3638H14.3689H14.3739H14.3788H14.3838H14.3887H14.3935H14.3984H14.4032H14.4079H14.4127H14.4174H14.422H14.4267H14.4313H14.4358H14.4404H14.4448H14.4493H14.4537H14.4581H14.4625H14.4668H14.4711H14.4753H14.4795H14.4837H14.4878H14.4919H14.496H14.5C15.6046 8.5 16.5 7.60457 16.5 6.5C16.5 5.39543 15.6046 4.5 14.5 4.5C13.934 4.5 13.2904 4.73421 12.7906 5.12581C12.2889 5.51891 12 6.01287 12 6.5Z" stroke="white"/>
<path d="M12 6.5V6.5041V6.50822V6.51237V6.51654V6.52074V6.52496V6.52921V6.53348V6.53778V6.5421V6.54644V6.55081V6.5552V6.55962V6.56405V6.56852V6.573V6.57751V6.58204V6.58659V6.59117V6.59577V6.60039V6.60504V6.6097V6.61439V6.6191V6.62383V6.62859V6.63336V6.63816V6.64298V6.64782V6.65268V6.65756V6.66246V6.66738V6.67232V6.67729V6.68227V6.68727V6.6923V6.69734V6.7024V6.70749V6.71259V6.71771V6.72285V6.72801V6.73319V6.73839V6.7436V6.74884V6.75409V6.75936V6.76465V6.76996V6.77528V6.78063V6.78599V6.79137V6.79676V6.80217V6.8076V6.81305V6.81852V6.824V6.82949V6.83501V6.84054V6.84608V6.85165V6.85722V6.86282V6.86843V6.87405V6.87969V6.88535V6.89102V6.89671V6.90241V6.90812V6.91385V6.9196V6.92536V6.93113V6.93692V6.94272V6.94854V6.95437V6.96021V6.96607V6.97193V6.97782V6.98371V6.98962V6.99554V7.00148V7.00743V7.01339V7.01936V7.02534V7.03134V7.03735V7.04337V7.0494V7.05544V7.06149V7.06756V7.07364V7.07972V7.08582V7.09193V7.09805V7.10418V7.11032V7.11647V7.12263V7.12881V7.13499V7.14118V7.14738V7.15359V7.15981V7.16603V7.17227V7.17852V7.18477V7.19103V7.19731V7.20359V7.20988V7.21617V7.22248V7.22879V7.23511V7.24144V7.24777V7.25412V7.26047V7.26682V7.27319V7.27956V7.28594V7.29232V7.29871V7.30511V7.31151V7.31792V7.32434V7.33076V7.33719V7.34362V7.35006V7.3565V7.36295V7.3694V7.37586V7.38232V7.38879V7.39526V7.40174V7.40822V7.4147V7.42119V7.42768V7.43418V7.44068V7.44718V7.45369V7.4602V7.46671V7.47323V7.47975V7.48627V7.49279V7.49932V7.50585V7.51238V7.51891V7.52545V7.53198V7.53852V7.54506V7.5516V7.55815V7.56469V7.57123V7.57778V7.58432V7.59087V7.59742V7.60397V7.61051V7.61706V7.62361V7.63016V7.6367V7.64325V7.6498V7.65634V7.66289V7.66943V7.67597V7.68251V7.68905V7.69559V7.70213V7.70866V7.7152V7.72173V7.72826V7.73479V7.74131V7.74783V7.75435V7.76087V7.76738V7.77389V7.7804V7.7869V7.79341V7.7999V7.8064V7.81289V7.81937V7.82585V7.83233V7.8388V7.84527V7.85174V7.8582V7.86465V7.8711V7.87754V7.88398V7.89042V7.89685V7.90327V7.90968V7.9161V7.9225V7.9289V7.93529V7.94168V7.94806V7.95443V7.9608V7.96715V7.97351V7.97985V7.98619V7.99252V7.99884V8.00516V8.01146V8.01776V8.02405V8.03034V8.03661V8.04288V8.04913V8.05538V8.06162V8.06785V8.07407V8.08028V8.08649V8.09268V8.09886V8.10504V8.1112V8.11735V8.1235V8.12963V8.13575V8.14186V8.14796V8.15406V8.16013V8.1662V8.17226V8.17831V8.18434V8.19036V8.19637V8.20237V8.20836V8.21433V8.2203V8.22625V8.23219V8.23811V8.24402V8.24992V8.25581V8.26168V8.26754V8.27339V8.27922V8.28504V8.29084V8.29664V8.30241V8.30818V8.31392V8.31966V8.32538V8.33108V8.33677V8.34245V8.34811V8.35375V8.35938V8.365V8.37059V8.37617V8.38174V8.38729V8.39283V8.39834V8.40384V8.40933V8.4148V8.42025V8.42568V8.4311V8.4365V8.44188V8.44725V8.4526V8.45793V8.46324V8.46853V8.47381V8.47907V8.4843V8.48953V8.49473V8.49991V8.5H11.9968H11.9908H11.9848H11.9788H11.9727H11.9666H11.9604H11.9543H11.9481H11.9419H11.9356H11.9294H11.9231H11.9168H11.9104H11.9041H11.8977H11.8913H11.8849H11.8784H11.8719H11.8654H11.8589H11.8524H11.8458H11.8392H11.8326H11.826H11.8193H11.8127H11.806H11.7993H11.7925H11.7858H11.779H11.7722H11.7654H11.7585H11.7517H11.7448H11.7379H11.731H11.7241H11.7171H11.7101H11.7031H11.6961H11.6891H11.6821H11.675H11.6679H11.6608H11.6537H11.6466H11.6394H11.6322H11.6251H11.6179H11.6106H11.6034H11.5962H11.5889H11.5816H11.5743H11.567H11.5597H11.5523H11.545H11.5376H11.5302H11.5228H11.5154H11.508H11.5005H11.4931H11.4856H11.4781H11.4707H11.4631H11.4556H11.4481H11.4406H11.433H11.4254H11.4179H11.4103H11.4027H11.395H11.3874H11.3798H11.3721H11.3645H11.3568H11.3491H11.3415H11.3338H11.3261H11.3183H11.3106H11.3029H11.2951H11.2874H11.2796H11.2719H11.2641H11.2563H11.2485H11.2407H11.2329H11.2251H11.2173H11.2094H11.2016H11.1938H11.1859H11.1781H11.1702H11.1623H11.1545H11.1466H11.1387H11.1308H11.1229H11.115H11.1071H11.0992H11.0913H11.0834H11.0755H11.0675H11.0596H11.0517H11.0438H11.0358H11.0279H11.0199H11.012H11.0041H10.9961H10.9882H10.9802H10.9722H10.9643H10.9563H10.9484H10.9404H10.9325H10.9245H10.9165H10.9086H10.9006H10.8927H10.8847H10.8767H10.8688H10.8608H10.8529H10.8449H10.8369H10.829H10.821H10.8131H10.8051H10.7972H10.7892H10.7813H10.7734H10.7654H10.7575H10.7496H10.7416H10.7337H10.7258H10.7179H10.71H10.7021H10.6942H10.6863H10.6784H10.6705H10.6626H10.6548H10.6469H10.639H10.6312H10.6233H10.6155H10.6076H10.5998H10.592H10.5841H10.5763H10.5685H10.5607H10.5529H10.5452H10.5374H10.5296H10.5219H10.5141H10.5064H10.4987H10.4909H10.4832H10.4755H10.4678H10.4602H10.4525H10.4448H10.4372H10.4295H10.4219H10.4143H10.4067H10.3991H10.3915H10.3839H10.3763H10.3688H10.3613H10.3537H10.3462H10.3387H10.3312H10.3238H10.3163H10.3088H10.3014H10.294H10.2866H10.2792H10.2718H10.2644H10.2571H10.2498H10.2424H10.2351H10.2278H10.2206H10.2133H10.2061H10.1988H10.1916H10.1844H10.1773H10.1701H10.163H10.1558H10.1487H10.1416H10.1345H10.1275H10.1205H10.1134H10.1064H10.0994H10.0925H10.0855H10.0786H10.0717H10.0648H10.0579H10.0511H10.0443H10.0374H10.0307H10.0239H10.0171H10.0104H10.0037H9.99702H9.99035H9.98371H9.97709H9.97049H9.96391H9.95736H9.95083H9.94431H9.93783H9.93136H9.92492H9.9185H9.91211H9.90574H9.89939H9.89307H9.88677H9.88049H9.87424H9.86801H9.86181H9.85564H9.84949H9.84336H9.83726H9.83119H9.82514H9.81912H9.81312H9.80715H9.80121H9.79529H9.7894H9.78354H9.77771H9.7719H9.76612H9.76037H9.75464H9.74895H9.74328H9.73764H9.73203H9.72645H9.7209H9.71538H9.70988H9.70442H9.69899H9.69358H9.68821H9.68287H9.67755H9.67227H9.66702H9.6618H9.65661H9.65145H9.64632H9.64123H9.63617H9.63114H9.62614H9.62117H9.61624H9.61134H9.60647H9.60164H9.59684H9.59207H9.58734H9.58263H9.57797H9.57334H9.56874H9.56418H9.55965H9.55516H9.5507H9.54627H9.54189H9.53753H9.53322H9.52894H9.52469H9.52049H9.51632H9.51218H9.50808H9.50402H9.5C8.39543 8.5 7.5 7.60457 7.5 6.5C7.5 5.39543 8.39543 4.5 9.5 4.5C10.066 4.5 10.7096 4.73421 11.2094 5.12581C11.7111 5.51891 12 6.01287 12 6.5Z" stroke="white"/>
</g>
</svg>
