<svg width="24" height="24" viewBox="0 0 24 24" fill="none" xmlns="http://www.w3.org/2000/svg">
<g opacity="0.54">
<path fill-rule="evenodd" clip-rule="evenodd" d="M20.1321 11.7669C20.0567 11.9151 20.0567 12.085 20.1321 12.2332L20.8318 13.6066C21.2213 14.3713 20.9127 15.2828 20.1291 15.6816L18.7219 16.3981C18.5701 16.4754 18.466 16.6129 18.4363 16.7753L18.161 18.281C18.0077 19.1193 17.2 19.6827 16.3214 19.5634L14.744 19.3493C14.5739 19.3264 14.4055 19.3788 14.2819 19.4934L13.1369 20.5563C12.8182 20.8521 12.409 21.0001 12 21.0001C11.5909 21.0002 11.1819 20.8522 10.8631 20.5563L9.71812 19.4934C9.59457 19.3788 9.42611 19.3262 9.25599 19.3493L7.67859 19.5634C7.59986 19.5741 7.52153 19.5793 7.44433 19.5793C6.66052 19.5794 5.97853 19.0442 5.83901 18.281L5.56378 16.7753C5.53407 16.6129 5.42998 16.4754 5.27815 16.3981L3.87086 15.6816C3.08731 15.2827 2.77867 14.3713 3.16821 13.6066L3.86786 12.2333C3.94333 12.0851 3.94333 11.9152 3.86786 11.767L3.16824 10.3937C2.7787 9.62899 3.08735 8.7175 3.8709 8.31862L5.27818 7.60214C5.42998 7.52483 5.53407 7.38733 5.56378 7.22491L5.83901 5.71928C5.99227 4.88095 6.80015 4.31754 7.67856 4.43682L9.25596 4.65093C9.42618 4.67392 9.59453 4.6215 9.71808 4.50682L10.8631 3.44388C11.5006 2.85202 12.4994 2.85206 13.1369 3.44388L14.2819 4.50671C14.4054 4.62136 14.5738 4.67388 14.744 4.65082L16.3214 4.43672C17.1996 4.3175 18.0077 4.88085 18.161 5.71918L18.4362 7.22488C18.4659 7.38726 18.57 7.52479 18.7219 7.60207L20.1291 8.31855C20.9127 8.71746 21.2213 9.62888 20.8318 10.3936L20.1321 11.7669ZM15.8536 8.85361C16.0488 8.65835 16.0488 8.34177 15.8536 8.14651C15.6583 7.95125 15.3417 7.95125 15.1464 8.14651L8.14645 15.1465C7.95118 15.3418 7.95118 15.6584 8.14645 15.8536C8.34171 16.0489 8.65829 16.0489 8.85355 15.8536L15.8536 8.85361ZM14 16.0001C14.5523 16.0001 15 15.5523 15 15.0001C15 14.4478 14.5523 14.0001 14 14.0001C13.4477 14.0001 13 14.4478 13 15.0001C13 15.5523 13.4477 16.0001 14 16.0001ZM14 17.0001C15.1046 17.0001 16 16.1046 16 15.0001C16 13.8955 15.1046 13.0001 14 13.0001C12.8954 13.0001 12 13.8955 12 15.0001C12 16.1046 12.8954 17.0001 14 17.0001ZM11 9.00006C11 9.55235 10.5523 10.0001 10 10.0001C9.44772 10.0001 9 9.55235 9 9.00006C9 8.44778 9.44772 8.00006 10 8.00006C10.5523 8.00006 11 8.44778 11 9.00006ZM12 9.00006C12 10.1046 11.1046 11.0001 10 11.0001C8.89543 11.0001 8 10.1046 8 9.00006C8 7.89549 8.89543 7.00006 10 7.00006C11.1046 7.00006 12 7.89549 12 9.00006Z" fill="white"/>
</g>
</svg>
