<svg width="24" height="24" viewBox="0 0 24 24" fill="none" xmlns="http://www.w3.org/2000/svg">
<path d="M10.94 10.6625C11.5885 10.2572 12.4115 10.2572 13.06 10.6625L18.6432 14.152C19.2699 14.5437 19.2699 15.4563 18.6432 15.848L13.06 19.3375C12.4115 19.7428 11.5885 19.7428 10.94 19.3375L5.3568 15.848C4.73013 15.4563 4.73013 14.5437 5.3568 14.152L10.94 10.6625Z" fill="#495057"/>
<path d="M13.59 3.8145C12.6172 3.20649 11.3828 3.20649 10.41 3.8145L4.8268 7.304C3.57346 8.08734 3.57346 9.91266 4.8268 10.696L10.41 14.1855C11.3828 14.7935 12.6172 14.7935 13.59 14.1855L19.1732 10.696C20.4265 9.91266 20.4265 8.08734 19.1732 7.304L13.59 3.8145Z" fill="#495057" stroke="white" stroke-width="2"/>
</svg>
