<svg width="24" height="24" viewBox="0 0 24 24" fill="none" xmlns="http://www.w3.org/2000/svg">
<path d="M6 11H18V20L6 20V11Z" stroke="#495057" stroke-width="2"/>
<mask id="path-2-inside-1" fill="white">
<path d="M13 7H11V21H12C12.5523 21 13 20.5523 13 20V7Z"/>
</mask>
<path d="M13 7V5H15V7H13ZM11 7H9V5H11V7ZM11 21V23H9V21H11ZM13 9H11V5H13V9ZM13 7V21H9V7H13ZM11 19H12V23H11V19ZM11 20V7H15V20H11ZM12 19C11.4477 19 11 19.4477 11 20H15C15 21.6569 13.6569 23 12 23V19Z" fill="#495057" mask="url(#path-2-inside-1)"/>
<path d="M4 8H20V11H4V8Z" stroke="#495057" stroke-width="2"/>
<path d="M14.5455 8C15.6106 8 16.5 7.11902 16.5 6C16.5 4.88098 15.6106 4 14.5455 4C13.9825 4 13.311 4.24152 12.7834 4.66124C12.2534 5.08289 12 5.57153 12 6V6.00492V6.00987V6.01484V6.01985V6.02489V6.02996V6.03505V6.04018V6.04533V6.05052V6.05573V6.06097V6.06624V6.07154V6.07686V6.08222V6.0876V6.09301V6.09845V6.10391V6.10941V6.11492V6.12047V6.12604V6.13164V6.13727V6.14292V6.1486V6.1543V6.16004V6.16579V6.17157V6.17738V6.18321V6.18907V6.19495V6.20086V6.20679V6.21274V6.21872V6.22473V6.23076V6.23681V6.24288V6.24898V6.25511V6.26125V6.26742V6.27361V6.27983V6.28606V6.29232V6.2986V6.30491V6.31123V6.31758V6.32395V6.33034V6.33675V6.34319V6.34964V6.35611V6.36261V6.36913V6.37566V6.38222V6.3888V6.39539V6.40201V6.40864V6.4153V6.42197V6.42867V6.43538V6.44211V6.44886V6.45563V6.46242V6.46922V6.47605V6.48289V6.48975V6.49662V6.50352V6.51043V6.51736V6.5243V6.53127V6.53824V6.54524V6.55225V6.55928V6.56632V6.57338V6.58046V6.58755V6.59465V6.60177V6.60891V6.61606V6.62323V6.63041V6.6376V6.64481V6.65204V6.65928V6.66653V6.67379V6.68107V6.68836V6.69567V6.70299V6.71032V6.71766V6.72502V6.73239V6.73977V6.74716V6.75457V6.76198V6.76941V6.77685V6.7843V6.79177V6.79924V6.80672V6.81422V6.82173V6.82924V6.83677V6.8443V6.85185V6.85941V6.86697V6.87455V6.88213V6.88973V6.89733V6.90494V6.91256V6.92019V6.92783V6.93547V6.94313V6.95079V6.95846V6.96613V6.97382V6.98151V6.98921V6.99691V7.00462V7.01234V7.02007V7.0278V7.03554V7.04328V7.05103V7.05879V7.06655V7.07431V7.08209V7.08986V7.09764V7.10543V7.11322V7.12102V7.12882V7.13662V7.14443V7.15224V7.16006V7.16788V7.1757V7.18352V7.19135V7.19918V7.20702V7.21486V7.22269V7.23054V7.23838V7.24623V7.25407V7.26192V7.26977V7.27763V7.28548V7.29333V7.30119V7.30905V7.3169V7.32476V7.33262V7.34047V7.34833V7.35619V7.36404V7.3719V7.37976V7.38761V7.39546V7.40332V7.41117V7.41902V7.42686V7.43471V7.44256V7.4504V7.45824V7.46608V7.47391V7.48174V7.48957V7.4974V7.50522V7.51304V7.52086V7.52867V7.53648V7.54429V7.55209V7.55988V7.56768V7.57546V7.58325V7.59102V7.5988V7.60656V7.61433V7.62208V7.62984V7.63758V7.64532V7.65305V7.66078V7.6685V7.67621V7.68392V7.69162V7.69931V7.707V7.71468V7.72235V7.73001V7.73767V7.74532V7.75296V7.76059V7.76821V7.77582V7.78343V7.79102V7.79861V7.80619V7.81376V7.82131V7.82886V7.8364V7.84393V7.85145V7.85896V7.86646V7.87394V7.88142V7.88889V7.89634V7.90378V7.91121V7.91863V7.92604V7.93344V7.94082V7.9482V7.95555V7.9629V7.97024V7.97756V7.98487V7.99216V7.99944V8H12.0002H12.0086H12.0171H12.0255H12.034H12.0425H12.0511H12.0596H12.0682H12.0768H12.0854H12.094H12.1026H12.1113H12.12H12.1287H12.1374H12.1461H12.1548H12.1636H12.1724H12.1812H12.19H12.1988H12.2076H12.2165H12.2254H12.2343H12.2432H12.2521H12.261H12.2699H12.2789H12.2879H12.2969H12.3059H12.3149H12.3239H12.3329H12.342H12.351H12.3601H12.3692H12.3783H12.3874H12.3965H12.4056H12.4148H12.4239H12.4331H12.4423H12.4514H12.4606H12.4698H12.479H12.4882H12.4975H12.5067H12.516H12.5252H12.5345H12.5437H12.553H12.5623H12.5716H12.5809H12.5902H12.5995H12.6088H12.6181H12.6275H12.6368H12.6461H12.6555H12.6648H12.6742H12.6835H12.6929H12.7023H12.7116H12.721H12.7304H12.7398H12.7492H12.7585H12.7679H12.7773H12.7867H12.7961H12.8055H12.8149H12.8243H12.8337H12.8431H12.8526H12.862H12.8714H12.8808H12.8902H12.8996H12.909H12.9184H12.9278H12.9372H12.9466H12.956H12.9654H12.9748H12.9842H12.9936H13.003H13.0124H13.0218H13.0312H13.0406H13.0499H13.0593H13.0687H13.0781H13.0874H13.0968H13.1061H13.1155H13.1248H13.1341H13.1435H13.1528H13.1621H13.1714H13.1807H13.19H13.1993H13.2086H13.2179H13.2272H13.2364H13.2457H13.2549H13.2642H13.2734H13.2826H13.2919H13.3011H13.3103H13.3194H13.3286H13.3378H13.3469H13.3561H13.3652H13.3743H13.3835H13.3926H13.4017H13.4107H13.4198H13.4289H13.4379H13.4469H13.4559H13.4649H13.4739H13.4829H13.4919H13.5008H13.5098H13.5187H13.5276H13.5365H13.5454H13.5542H13.5631H13.5719H13.5807H13.5896H13.5983H13.6071H13.6159H13.6246H13.6333H13.642H13.6507H13.6594H13.668H13.6767H13.6853H13.6939H13.7025H13.711H13.7196H13.7281H13.7366H13.7451H13.7535H13.762H13.7704H13.7788H13.7872H13.7955H13.8039H13.8122H13.8205H13.8288H13.837H13.8453H13.8535H13.8617H13.8698H13.878H13.8861H13.8942H13.9022H13.9103H13.9183H13.9263H13.9343H13.9422H13.9502H13.9581H13.9659H13.9738H13.9816H13.9894H13.9972H14.0049H14.0127H14.0204H14.028H14.0357H14.0433H14.0509H14.0584H14.0659H14.0734H14.0809H14.0884H14.0958H14.1032H14.1105H14.1179H14.1252H14.1324H14.1397H14.1469H14.1541H14.1612H14.1683H14.1754H14.1825H14.1895H14.1965H14.2034H14.2104H14.2173H14.2241H14.231H14.2377H14.2445H14.2512H14.2579H14.2646H14.2712H14.2778H14.2844H14.2909H14.2974H14.3039H14.3103H14.3167H14.323H14.3293H14.3356H14.3419H14.3481H14.3542H14.3604H14.3665H14.3725H14.3785H14.3845H14.3905H14.3964H14.4023H14.4081H14.4139H14.4196H14.4253H14.431H14.4366H14.4422H14.4478H14.4533H14.4588H14.4642H14.4696H14.475H14.4803H14.4855H14.4908H14.496H14.5011H14.5062H14.5113H14.5163H14.5212H14.5262H14.5311H14.5359H14.5407H14.5455Z" stroke="#495057" stroke-width="2"/>
<path d="M9.45455 8C8.38942 8 7.5 7.11902 7.5 6C7.5 4.88098 8.38942 4 9.45455 4C10.0175 4 10.689 4.24152 11.2166 4.66124C11.7466 5.08289 12 5.57153 12 6V6.00492V6.00987V6.01484V6.01985V6.02489V6.02996V6.03505V6.04018V6.04533V6.05052V6.05573V6.06097V6.06624V6.07154V6.07686V6.08222V6.0876V6.09301V6.09845V6.10391V6.10941V6.11492V6.12047V6.12604V6.13164V6.13727V6.14292V6.1486V6.1543V6.16004V6.16579V6.17157V6.17738V6.18321V6.18907V6.19495V6.20086V6.20679V6.21274V6.21872V6.22473V6.23076V6.23681V6.24288V6.24898V6.25511V6.26125V6.26742V6.27361V6.27983V6.28606V6.29232V6.2986V6.30491V6.31123V6.31758V6.32395V6.33034V6.33675V6.34319V6.34964V6.35611V6.36261V6.36913V6.37566V6.38222V6.3888V6.39539V6.40201V6.40864V6.4153V6.42197V6.42867V6.43538V6.44211V6.44886V6.45563V6.46242V6.46922V6.47605V6.48289V6.48975V6.49662V6.50352V6.51043V6.51736V6.5243V6.53127V6.53824V6.54524V6.55225V6.55928V6.56632V6.57338V6.58046V6.58755V6.59465V6.60177V6.60891V6.61606V6.62323V6.63041V6.6376V6.64481V6.65204V6.65928V6.66653V6.67379V6.68107V6.68836V6.69567V6.70299V6.71032V6.71766V6.72502V6.73239V6.73977V6.74716V6.75457V6.76198V6.76941V6.77685V6.7843V6.79177V6.79924V6.80672V6.81422V6.82173V6.82924V6.83677V6.8443V6.85185V6.85941V6.86697V6.87455V6.88213V6.88973V6.89733V6.90494V6.91256V6.92019V6.92783V6.93547V6.94313V6.95079V6.95846V6.96613V6.97382V6.98151V6.98921V6.99691V7.00462V7.01234V7.02007V7.0278V7.03554V7.04328V7.05103V7.05879V7.06655V7.07431V7.08209V7.08986V7.09764V7.10543V7.11322V7.12102V7.12882V7.13662V7.14443V7.15224V7.16006V7.16788V7.1757V7.18352V7.19135V7.19918V7.20702V7.21486V7.22269V7.23054V7.23838V7.24623V7.25407V7.26192V7.26977V7.27763V7.28548V7.29333V7.30119V7.30905V7.3169V7.32476V7.33262V7.34047V7.34833V7.35619V7.36404V7.3719V7.37976V7.38761V7.39546V7.40332V7.41117V7.41902V7.42686V7.43471V7.44256V7.4504V7.45824V7.46608V7.47391V7.48174V7.48957V7.4974V7.50522V7.51304V7.52086V7.52867V7.53648V7.54429V7.55209V7.55988V7.56768V7.57546V7.58325V7.59102V7.5988V7.60656V7.61433V7.62208V7.62984V7.63758V7.64532V7.65305V7.66078V7.6685V7.67621V7.68392V7.69162V7.69931V7.707V7.71468V7.72235V7.73001V7.73767V7.74532V7.75296V7.76059V7.76821V7.77582V7.78343V7.79102V7.79861V7.80619V7.81376V7.82131V7.82886V7.8364V7.84393V7.85145V7.85896V7.86646V7.87394V7.88142V7.88889V7.89634V7.90378V7.91121V7.91863V7.92604V7.93344V7.94082V7.9482V7.95555V7.9629V7.97024V7.97756V7.98487V7.99216V7.99944V8H11.9998H11.9914H11.9829H11.9745H11.966H11.9575H11.9489H11.9404H11.9318H11.9232H11.9146H11.906H11.8974H11.8887H11.88H11.8713H11.8626H11.8539H11.8452H11.8364H11.8276H11.8188H11.81H11.8012H11.7924H11.7835H11.7746H11.7657H11.7568H11.7479H11.739H11.7301H11.7211H11.7121H11.7031H11.6941H11.6851H11.6761H11.6671H11.658H11.649H11.6399H11.6308H11.6217H11.6126H11.6035H11.5944H11.5852H11.5761H11.5669H11.5577H11.5486H11.5394H11.5302H11.521H11.5118H11.5025H11.4933H11.484H11.4748H11.4655H11.4563H11.447H11.4377H11.4284H11.4191H11.4098H11.4005H11.3912H11.3819H11.3725H11.3632H11.3539H11.3445H11.3352H11.3258H11.3165H11.3071H11.2977H11.2884H11.279H11.2696H11.2602H11.2508H11.2415H11.2321H11.2227H11.2133H11.2039H11.1945H11.1851H11.1757H11.1663H11.1569H11.1474H11.138H11.1286H11.1192H11.1098H11.1004H11.091H11.0816H11.0722H11.0628H11.0534H11.044H11.0346H11.0252H11.0158H11.0064H10.997H10.9876H10.9782H10.9688H10.9594H10.9501H10.9407H10.9313H10.9219H10.9126H10.9032H10.8939H10.8845H10.8752H10.8659H10.8565H10.8472H10.8379H10.8286H10.8193H10.81H10.8007H10.7914H10.7821H10.7728H10.7636H10.7543H10.7451H10.7358H10.7266H10.7174H10.7081H10.6989H10.6897H10.6806H10.6714H10.6622H10.6531H10.6439H10.6348H10.6257H10.6165H10.6074H10.5983H10.5893H10.5802H10.5711H10.5621H10.5531H10.5441H10.5351H10.5261H10.5171H10.5081H10.4992H10.4902H10.4813H10.4724H10.4635H10.4546H10.4458H10.4369H10.4281H10.4193H10.4104H10.4017H10.3929H10.3841H10.3754H10.3667H10.358H10.3493H10.3406H10.332H10.3233H10.3147H10.3061H10.2975H10.289H10.2804H10.2719H10.2634H10.2549H10.2465H10.238H10.2296H10.2212H10.2128H10.2045H10.1961H10.1878H10.1795H10.1712H10.163H10.1547H10.1465H10.1383H10.1302H10.122H10.1139H10.1058H10.0978H10.0897H10.0817H10.0737H10.0657H10.0578H10.0498H10.0419H10.0341H10.0262H10.0184H10.0106H10.0028H9.99506H9.98734H9.97964H9.97198H9.96434H9.95672H9.94914H9.94158H9.93405H9.92655H9.91908H9.91163H9.90422H9.89683H9.88947H9.88214H9.87484H9.86758H9.86034H9.85313H9.84595H9.8388H9.83168H9.8246H9.81754H9.81052H9.80353H9.79657H9.78964H9.78274H9.77588H9.76905H9.76225H9.75549H9.74876H9.74206H9.7354H9.72877H9.72217H9.71561H9.70908H9.70259H9.69613H9.68971H9.68332H9.67697H9.67066H9.66438H9.65814H9.65193H9.64576H9.63963H9.63353H9.62747H9.62145H9.61547H9.60953H9.60362H9.59775H9.59192H9.58613H9.58038H9.57466H9.56899H9.56335H9.55776H9.5522H9.54669H9.54122H9.53578H9.53039H9.52504H9.51973H9.51446H9.50923H9.50405H9.4989H9.4938H9.48875H9.48373H9.47876H9.47383H9.46894H9.4641H9.4593H9.45455Z" stroke="#495057" stroke-width="2"/>
</svg>
