<svg width="14" height="14" viewBox="0 0 14 14" fill="none" xmlns="http://www.w3.org/2000/svg">
<path d="M0 6H1.5C2.32843 6 3 6.67157 3 7.5V11H11V7.5C11 6.67157 11.6716 6 12.5 6H14V13H12.5V14H10V13H4V14H1.5V13H0V6Z" fill="#495057"/>
<path fill-rule="evenodd" clip-rule="evenodd" d="M2 2C2 0.89543 2.89543 0 4 0H10C11.1046 0 12 0.895431 12 2V5C10.8954 5 10 5.89543 10 7V8.5C9.67986 8.17986 9.24565 8 8.79289 8H5.20711C4.75435 8 4.32014 8.17986 4 8.5V7C4 5.89543 3.10457 5 2 5V2ZM5.5 3L6 3.5L5.5 4L5 3.5L5.5 3ZM6 5.5L5.5 5L5 5.5L5.5 6L6 5.5ZM8.5 3L9 3.5L8.5 4L8 3.5L8.5 3ZM9 5.5L8.5 5L8 5.5L8.5 6L9 5.5Z" fill="#495057"/>
<path d="M4 10C4 9.44772 4.44772 9 5 9H9C9.55228 9 10 9.44772 10 10H4Z" fill="#495057"/>
</svg>
