<svg width="14" height="13" viewBox="0 0 14 13" fill="none" xmlns="http://www.w3.org/2000/svg">
<mask id="path-1-inside-1" fill="white">
<path d="M12 12H10L10.5 13H12V12Z"/>
</mask>
<path d="M12 12V11H13V12H12ZM10 12L9.10557 12.4472L8.38197 11H10V12ZM10.5 13V14H9.88197L9.60557 13.4472L10.5 13ZM12 13H13V14H12V13ZM12 13H10V11H12V13ZM10.8944 11.5528L11.3944 12.5528L9.60557 13.4472L9.10557 12.4472L10.8944 11.5528ZM10.5 12H12V14H10.5V12ZM11 13V12H13V13H11Z" fill="#495057" mask="url(#path-1-inside-1)"/>
<mask id="path-3-inside-2" fill="white">
<path d="M2 12H4L3.5 13H2V12Z"/>
</mask>
<path d="M2 12V11H1V12H2ZM4 12L4.89443 12.4472L5.61803 11H4V12ZM3.5 13V14H4.11803L4.39443 13.4472L3.5 13ZM2 13H1V14H2V13ZM2 13H4V11H2V13ZM3.10557 11.5528L2.60557 12.5528L4.39443 13.4472L4.89443 12.4472L3.10557 11.5528ZM3.5 12H2V14H3.5V12ZM3 13V12H1V13H3Z" fill="#495057" mask="url(#path-3-inside-2)"/>
<path fill-rule="evenodd" clip-rule="evenodd" d="M13 3H1V6H13V3ZM13 7H1V10C1 10.5523 1.44772 11 2 11H12C12.5523 11 13 10.5523 13 10V7ZM6 8.5C6 8.22386 6.22386 8 6.5 8H7.5C7.77614 8 8 8.22386 8 8.5C8 8.77614 7.77614 9 7.5 9H6.5C6.22386 9 6 8.77614 6 8.5ZM6.5 4C6.22386 4 6 4.22386 6 4.5C6 4.77614 6.22386 5 6.5 5H7.5C7.77614 5 8 4.77614 8 4.5C8 4.22386 7.77614 4 7.5 4H6.5Z" fill="#495057"/>
<path d="M0.5 1C0.5 0.723858 0.723858 0.5 1 0.5H13C13.2761 0.5 13.5 0.723858 13.5 1V1.5H0.5V1Z" stroke="#495057"/>
</svg>
