<svg width="14" height="14" viewBox="0 0 14 14" fill="none" xmlns="http://www.w3.org/2000/svg">
<path d="M1 2H13L11.2514 6.37139C11.0996 6.75105 10.7319 7 10.323 7H9V6.5C9 6.22386 8.77614 6 8.5 6H5.5C5.22386 6 5 6.22386 5 6.5V7H3.67703C3.26813 7 2.90042 6.75105 2.74856 6.37139L1 2Z" fill="#495057"/>
<path d="M4 1C4 0.447715 4.44772 0 5 0H9C9.55228 0 10 0.447715 10 1V2H9V1.5C9 1.22386 8.77614 1 8.5 1H5.5C5.22386 1 5 1.22386 5 1.5V2H4V1Z" fill="#495057"/>
<path d="M0 3L1.74856 7.37139C1.90042 7.75105 2.26813 8 2.67703 8H5V8.5C5 8.77614 5.22386 9 5.5 9H8.5C8.77614 9 9 8.77614 9 8.5V8H11.323C11.7319 8 12.0996 7.75105 12.2514 7.37139L14 3V12C14 12.5523 13.5523 13 13 13H1C0.447716 13 0 12.5523 0 12V3Z" fill="#495057"/>
<rect x="6" y="7" width="2" height="1" fill="#495057"/>
</svg>
