<svg width="20" height="20" viewBox="0 0 20 20" fill="none" xmlns="http://www.w3.org/2000/svg">
<g clip-path="url(#clip0)">
<circle cx="15.75" cy="13.25" r="0.75" fill="#495057"/>
<circle cx="3.75" cy="15.75" r="0.75" fill="#495057"/>
<circle cx="16.6999" cy="15.3" r="0.3" fill="#495057"/>
<circle cx="4.6999" cy="13" r="0.3" fill="#495057"/>
<path d="M14.0468 11.5217C13.7086 14.8074 12.0255 17 10.0001 17C8.006 17 6.34373 14.8842 5.96997 11.6739C5.96997 11.3696 7.26094 9.08694 9.7718 9.08694C12.2827 9.08694 14.0327 11.2174 14.0468 11.5217Z" fill="#495057"/>
<path d="M11 14.5C10.5 15 10 15 10 15C10 15 9.5 15 9 14.5" stroke="white" stroke-width="0.6" stroke-linecap="round"/>
<circle cx="11.5" cy="12" r="0.5" fill="white"/>
<circle cx="8.5" cy="12" r="0.5" fill="white"/>
<path d="M9.39124 4.82609C7.2608 5.28261 6.01172 6.34783 6.01172 6.34783C6.45539 4.42518 8.0727 3 9.99992 3C10.4238 3 10.8326 3.06893 11.2173 3.19693C11.2173 3.19693 11.0651 4.4398 9.39124 4.82609Z" fill="#495057"/>
<path d="M8.63045 5.73914C10.9083 5.25958 11.4457 4.31885 11.6739 3.6087C12.1304 3.6087 13.5 3.76088 13.5 5.58696C13.5 7.96088 10.3044 8.63044 9.54349 8.63044C7.41305 8.63044 5.9674 10.3044 5.9674 10.6087C5.1761 10.6087 4.97827 9.69566 4.97827 9.08696C4.97827 8.25001 5.73914 6.50001 8.63045 5.73914Z" fill="#495057"/>
<path d="M13.9566 6.34784C13.9566 7.74784 12.2827 8.65581 11.3696 8.9348C12.5665 8.9348 13.9566 10.1522 13.9566 10.3044C14.2609 10.3044 15.0218 9.54349 15.0218 8.63045C15.0218 6.9261 14.3117 6.39856 13.9566 6.34784Z" fill="#495057"/>
</g>
<defs>
<clipPath id="clip0">
<rect width="20" height="20" fill="white"/>
</clipPath>
</defs>
</svg>
