<svg width="14" height="14" viewBox="0 0 14 14" fill="none" xmlns="http://www.w3.org/2000/svg">
<path d="M7 0C3.13425 0 0 3.13425 0 7C0 10.8658 3.13425 14 7 14C10.8658 14 14 10.8658 14 7C14 3.13425 10.8658 0 7 0ZM7 1.75C9.27806 1.75 11.2022 3.21738 11.9289 5.25H2.07113C2.79781 3.21738 4.72194 1.75 7 1.75ZM7 7.875C6.51656 7.875 6.125 7.48344 6.125 7C6.125 6.51656 6.51656 6.125 7 6.125C7.48344 6.125 7.875 6.51656 7.875 7C7.875 7.48344 7.48344 7.875 7 7.875ZM1.75 7C4.14094 7 6.07731 9.30387 6.118 12.1612C3.6435 11.7373 1.75 9.59262 1.75 7ZM7.882 12.1612C7.92269 9.30387 9.85906 7 12.25 7C12.25 9.59262 10.3565 11.7373 7.882 12.1612Z" fill="#495057"/>
</svg>
