<svg width="14" height="14" viewBox="0 0 14 14" fill="none" xmlns="http://www.w3.org/2000/svg">
<path d="M5.90054 7.68792C5.90054 8.08493 5.57873 8.40677 5.18172 8.40677C4.78473 8.40677 4.46291 8.08495 4.46291 7.68792C4.46291 7.29093 4.78473 6.96909 5.18172 6.96909C5.57873 6.96912 5.90054 7.29096 5.90054 7.68792ZM8.81828 6.96912C8.4213 6.96912 8.09946 7.29093 8.09946 7.68797C8.09946 8.08495 8.4213 8.40677 8.81828 8.40677C9.21527 8.40677 9.53713 8.08495 9.53713 7.68797C9.53711 7.29096 9.21529 6.96912 8.81828 6.96912ZM14 7.28725V8.65337C14 9.33923 13.444 9.89523 12.7581 9.89523H11.8569C10.964 12.3746 8.68375 13.8722 7 13.8722C5.31625 13.8722 3.03601 12.3746 2.14305 9.89521H1.24188C0.555997 9.89521 0 9.33923 0 8.65335V7.28723C0 6.81528 0.263324 6.40484 0.651046 6.19473C0.664062 4.2552 1.22935 2.74044 2.33363 1.69325C3.42897 0.654553 4.99896 0.127838 7 0.127838C9.00104 0.127838 10.571 0.654553 11.6664 1.69323C12.7706 2.74041 13.3359 4.2552 13.349 6.1947C13.7367 6.40484 14 6.81528 14 7.28725ZM11.3715 7.69247C11.3715 7.37292 11.3552 7.07268 11.331 6.78174C10.7799 6.27749 9.77932 5.89487 8.51655 5.7527C8.68236 5.93914 8.82558 6.18439 8.91244 6.50721C8.13896 5.89787 6.62072 6.0429 5.47233 4.67932C5.40649 4.60317 5.34956 4.5304 5.30033 4.4639C5.29976 4.4631 5.29911 4.46248 5.29854 4.4617L5.29868 4.46175C5.09438 4.18545 5.02472 4.02111 5.02083 4.20302C4.98713 5.77031 3.87626 6.99215 2.64271 7.16452C2.63491 7.33689 2.62852 7.51093 2.62852 7.6925C2.62852 8.35496 2.7367 8.95872 2.92062 9.50282C3.61353 10.3386 4.75783 10.5746 5.77063 10.6372C5.95865 10.3381 6.3805 10.1293 6.87178 10.1293C7.53786 10.1293 8.07779 10.5125 8.07779 10.9854C8.07779 11.4582 7.53783 11.8414 6.87178 11.8414C6.35943 11.8414 5.92282 11.6143 5.74808 11.2944C5.04023 11.2533 4.26208 11.1326 3.56856 10.8051C4.54385 12.2427 6.0558 13.0028 7 13.0028C8.4837 13.0028 11.3715 11.1285 11.3715 7.69247ZM12.6013 6.04537C12.5222 2.66087 10.5904 0.872994 7 0.872994C3.40962 0.872994 1.4778 2.66087 1.39874 6.04537H1.87655C2.05125 4.90462 2.42049 3.96646 2.98111 3.2451C3.87448 2.09564 5.22662 1.51278 7 1.51278C8.77338 1.51278 10.1255 2.09564 11.0189 3.2451C11.5795 3.96644 11.9488 4.90462 12.1235 6.04537H12.6013Z" fill="#495057"/>
</svg>
