<svg width="14" height="14" viewBox="0 0 14 14" fill="none" xmlns="http://www.w3.org/2000/svg">
<path d="M13.7263 4.50964L7.13647 2.18457C7.04818 2.1534 6.95185 2.1534 6.86355 2.18457L0.273711 4.50964C0.109868 4.56744 0.000219078 4.72221 3.2777e-07 4.89595C-0.000218422 5.06969 0.109075 5.22471 0.272782 5.28289L6.86263 7.62562C6.90706 7.64143 6.95354 7.64933 7 7.64933C7.04648 7.64933 7.09294 7.64143 7.13737 7.62562L13.7272 5.28289C13.8909 5.22471 14.0002 5.06969 14 4.89595C13.9998 4.72221 13.8901 4.56744 13.7263 4.50964Z" fill="#495057"/>
<path d="M13.0149 9.98446V6.4068L12.1946 6.69842V9.98446C11.9475 10.1267 11.781 10.3931 11.781 10.6987C11.781 11.0042 11.9475 11.2707 12.1946 11.4129V13.4286C12.1946 13.6551 12.3782 13.8388 12.6047 13.8388C12.8313 13.8388 13.0149 13.6551 13.0149 13.4286V11.413C13.262 11.2708 13.4285 11.0043 13.4285 10.6987C13.4285 10.3932 13.262 10.1267 13.0149 9.98446Z" fill="#495057"/>
<path d="M7.00007 8.46972C6.85927 8.46972 6.72061 8.44579 6.58791 8.39862L2.8833 7.0816V9.88652C2.8833 10.3281 3.34396 10.7015 4.25248 10.9964C5.04439 11.2534 6.02018 11.395 7.00007 11.395C7.97996 11.395 8.95572 11.2534 9.74765 10.9964C10.6562 10.7015 11.1168 10.3281 11.1168 9.88652V7.0816L7.41225 8.39862C7.27952 8.44579 7.14086 8.46972 7.00007 8.46972Z" fill="#495057"/>
</svg>
