<svg width="20" height="15" viewBox="0 0 20 15" fill="none" xmlns="http://www.w3.org/2000/svg">
<path d="M12.5 11C12.5 13.4 10.4167 15 10 15C9.58333 15 7.5 13.4 7.5 11C7.5 8.6 9.58333 7 10 7C10.4167 7 12.5 8.6 12.5 11Z" fill="#495057"/>
<path d="M8.5 10.4C8.5 10.5781 8.57558 10.7445 8.63001 10.849C8.69534 10.9744 8.78469 11.1102 8.89119 11.2486C9.10496 11.5265 9.40961 11.8434 9.79109 12.1432C10.5524 12.7413 11.6581 13.3 13 13.3C14.3419 13.3 15.4476 12.7413 16.2089 12.1432C16.5904 11.8434 16.895 11.5265 17.1088 11.2486C17.2153 11.1102 17.3047 10.9744 17.37 10.849C17.4244 10.7445 17.5 10.5781 17.5 10.4C17.5 10.2219 17.4244 10.0555 17.37 9.951C17.3047 9.82561 17.2153 9.68984 17.1088 9.55139C16.895 9.27349 16.5904 8.95658 16.2089 8.65684C15.4476 8.05866 14.3419 7.5 13 7.5C11.6581 7.5 10.5524 8.05866 9.79109 8.65684C9.40961 8.95658 9.10496 9.27349 8.89119 9.5514C8.78469 9.68984 8.69534 9.82561 8.63001 9.951C8.57558 10.0555 8.5 10.2219 8.5 10.4Z" fill="#495057" stroke="#F5F5F5"/>
<path d="M11.5 10.4C11.5 10.5781 11.4244 10.7445 11.37 10.849C11.3047 10.9744 11.2153 11.1102 11.1088 11.2486C10.895 11.5265 10.5904 11.8434 10.2089 12.1432C9.44759 12.7413 8.34189 13.3 7 13.3C5.65811 13.3 4.55241 12.7413 3.79109 12.1432C3.40961 11.8434 3.10496 11.5265 2.89119 11.2486C2.78469 11.1102 2.69534 10.9744 2.63001 10.849C2.57558 10.7445 2.5 10.5781 2.5 10.4C2.5 10.2219 2.57558 10.0555 2.63001 9.951C2.69534 9.82561 2.78469 9.68984 2.89119 9.55139C3.10496 9.27349 3.40961 8.95658 3.79109 8.65684C4.55241 8.05866 5.65811 7.5 7 7.5C8.34189 7.5 9.44759 8.05866 10.2089 8.65684C10.5904 8.95658 10.895 9.27349 11.1088 9.5514C11.2153 9.68984 11.3047 9.82561 11.37 9.951C11.4244 10.0555 11.5 10.2219 11.5 10.4Z" fill="#495057" stroke="#F5F5F5"/>
<path d="M8.76774 11.5459C8.90255 11.6807 9.09132 11.7538 9.22868 11.797C9.38853 11.8474 9.58004 11.8871 9.79136 11.9147C10.2153 11.97 10.7542 11.9809 11.3464 11.9098C12.5287 11.7679 13.9707 11.2927 15.1317 10.1317C16.2927 8.97074 16.7679 7.52869 16.9098 6.34641C16.9808 5.75423 16.97 5.21528 16.9147 4.79138C16.8871 4.58007 16.8474 4.38856 16.797 4.2287C16.7538 4.09134 16.6807 3.90257 16.5459 3.76777C16.4111 3.63296 16.2223 3.55992 16.085 3.51666C15.9251 3.46632 15.7336 3.42659 15.5223 3.39902C15.0984 3.34373 14.5595 3.33285 13.9673 3.40391C12.785 3.54579 11.3429 4.02099 10.182 5.18198C9.02097 6.34297 8.54576 7.78501 8.40389 8.9673C8.33283 9.55948 8.34371 10.0984 8.399 10.5223C8.42656 10.7336 8.4663 10.9252 8.51664 11.085C8.5599 11.2224 8.63294 11.4111 8.76774 11.5459Z" fill="#495057" stroke="#F5F5F5"/>
<path d="M11.2332 11.5459C11.0984 11.6807 10.9097 11.7538 10.7723 11.797C10.6124 11.8474 10.4209 11.8871 10.2096 11.9147C9.78572 11.97 9.24677 11.9809 8.65459 11.9098C7.47231 11.7679 6.03026 11.2927 4.86927 10.1317C3.70828 8.97074 3.23308 7.52869 3.0912 6.34641C3.02014 5.75423 3.03102 5.21528 3.08632 4.79138C3.11388 4.58007 3.15361 4.38856 3.20395 4.2287C3.24721 4.09134 3.32026 3.90257 3.45506 3.76777C3.58986 3.63296 3.77863 3.55992 3.91599 3.51666C4.07585 3.46632 4.26736 3.42659 4.47867 3.39902C4.90257 3.34373 5.44152 3.33285 6.0337 3.40391C7.21599 3.54579 8.65803 4.02099 9.81902 5.18198C10.98 6.34297 11.4552 7.78501 11.5971 8.9673C11.6681 9.55948 11.6573 10.0984 11.602 10.5223C11.5744 10.7336 11.5347 10.9252 11.4843 11.085C11.4411 11.2224 11.368 11.4111 11.2332 11.5459Z" fill="#495057" stroke="#F5F5F5"/>
<path d="M10 11.5C10.1906 11.5 10.3758 11.4182 10.5035 11.3516C10.6521 11.2742 10.8156 11.1669 10.9845 11.0369C11.3234 10.7763 11.7122 10.4029 12.0807 9.93391C12.8163 8.99759 13.5 7.64189 13.5 6C13.5 4.35811 12.8163 3.00241 12.0807 2.06609C11.7122 1.59711 11.3234 1.22371 10.9845 0.963063C10.8156 0.833132 10.6521 0.725809 10.5035 0.648372C10.3758 0.581829 10.1906 0.5 10 0.5C9.80936 0.5 9.62423 0.581829 9.49651 0.648372C9.34788 0.725809 9.18437 0.833132 9.01546 0.963063C8.67662 1.22371 8.28783 1.59711 7.91934 2.06609C7.18366 3.00241 6.5 4.35811 6.5 6C6.5 7.64189 7.18366 8.99759 7.91934 9.93391C8.28783 10.4029 8.67662 10.7763 9.01546 11.0369C9.18437 11.1669 9.34788 11.2742 9.49651 11.3516C9.62423 11.4182 9.80936 11.5 10 11.5Z" fill="#495057" stroke="#F5F5F5"/>
</svg>
