<svg width="14" height="14" viewBox="0 0 14 14" fill="none" xmlns="http://www.w3.org/2000/svg">
<path fill-rule="evenodd" clip-rule="evenodd" d="M7.97037 3.24259C7.86196 3.67765 7.46862 4 7 4C6.53138 4 6.13804 3.67765 6.02963 3.24259L7 3L7.97037 3.24259ZM5.05926 3.48519L3 4L0.5 5.5L2 8L3 7V14H11V7L12 8L13.5 5.5L11 4L8.94074 3.48519C8.72392 4.35531 7.93725 5 7 5C6.06275 5 5.27608 4.35531 5.05926 3.48519Z" fill="#495057"/>
<path d="M7 1.6C7.33137 1.6 7.6 1.33137 7.6 1C7.6 0.668629 7.33137 0.4 7 0.4C6.73741 0.4 6.51421 0.568693 6.43287 0.803621C6.39674 0.907999 6.31046 1 6.2 1C6.08954 1 5.99791 0.909555 6.01975 0.801277C6.11191 0.344193 6.51576 0 7 0C7.55228 0 8 0.447715 8 1C8 1.55228 7.55228 2 7 2V1.6Z" fill="#495057"/>
<rect x="6.80005" y="1.59998" width="0.4" height="1" fill="#495057"/>
</svg>
