<svg width="15" height="15" viewBox="0 0 15 15" fill="none" xmlns="http://www.w3.org/2000/svg">
<path fill-rule="evenodd" clip-rule="evenodd" d="M12.8297 3.17432C12.9991 3.00492 13.2521 2.96321 13.4917 2.96347C13.786 2.96379 14.0803 2.85169 14.3049 2.62716C14.7533 2.17874 14.7533 1.4517 14.3049 1.00328C13.8564 0.554856 13.1294 0.554856 12.681 1.00328C12.4565 1.22777 12.3444 1.52209 12.3447 1.81632C12.3449 2.05386 12.3039 2.30464 12.138 2.474L11.695 2.91707L10.3805 1.60257L8.87259 2.56917L7.71268 1.40926L6.90074 2.2212L13.087 8.40741L13.8989 7.59547L12.739 6.43555L13.7056 4.92766L12.3909 3.61302L12.7349 3.26909C12.7362 3.26778 12.7375 3.26645 12.7389 3.26512L12.8297 3.17432ZM4.6195 12.3511L1.31375 9.04536C0.416903 9.94221 0.416902 11.3963 1.31375 12.2931L3.01495 13.9943C3.9118 14.8912 5.36587 14.8912 6.26271 13.9943L11.637 8.62006L6.68802 3.67109L5.45077 4.90834L8.75653 8.21409L7.90593 9.0647L4.60017 5.75894L3.78823 6.57088L5.45077 8.23342L4.60017 9.08403L2.93763 7.42148L2.12569 8.23342L5.43144 11.5392L4.6195 12.3511Z" fill="#495057"/>
</svg>
