<svg width="20" height="20" viewBox="0 0 20 20" fill="none" xmlns="http://www.w3.org/2000/svg">
<g clip-path="url(#clip0)">
<path fill-rule="evenodd" clip-rule="evenodd" d="M9.09863 14.5199C10.029 16.0397 11.3983 17 12.9249 17C15.7278 17 17.9999 13.7633 17.9999 9.77051C17.9999 8.90923 17.8922 8.08506 17.6977 7.31987C17.6685 7.2042 17.5917 7.10651 17.4865 7.05011C17.3816 6.99405 17.2576 6.98455 17.1451 7.02402C16.3092 7.31735 15.0889 7.52206 13.6944 7.57773C13.0208 10.8781 11.2923 13.4871 9.09863 14.5199ZM14.8727 14.9704C14.91 14.9582 14.9384 14.9271 14.9474 14.889C14.9801 14.75 15.0002 14.6065 15.0003 14.4573C15.0003 13.3125 14.0711 12.3843 12.925 12.3843C11.7788 12.3843 10.8496 13.3124 10.8496 14.4573C10.8496 14.6065 10.8697 14.7499 10.9025 14.889C10.9114 14.9271 10.9398 14.9579 10.9771 14.9704C11.0144 14.9827 11.0556 14.9748 11.0856 14.9497C11.4809 14.6179 12.1534 14.3974 12.9249 14.3974C13.6964 14.3974 14.3689 14.6179 14.7642 14.9497C14.7942 14.9751 14.8354 14.9829 14.8727 14.9704ZM14.0416 10.3361C14.0416 10.694 14.4727 11.3187 15.0046 11.3187C15.5365 11.3187 15.9676 11.0285 15.9676 10.6706C15.9676 10.3127 15.5365 10.0225 15.0046 10.0225C14.9504 10.0225 14.8973 10.022 14.8455 10.0216C14.3893 10.0176 14.0416 10.0146 14.0416 10.3361Z" fill="#495057"/>
<path d="M12 5.77039C12 4.9092 11.8939 4.08498 11.7023 3.31981C11.6736 3.20414 11.5978 3.10638 11.4942 3.05004C11.433 3.01686 11.3651 3 11.2966 3C11.2498 3 11.2029 3.00781 11.1578 3.02396C10.186 3.37014 8.68652 3.59283 7.00004 3.59283C5.31351 3.59283 3.81407 3.37014 2.84222 3.02396C2.79739 3.00781 2.75068 3 2.70397 3C2.63554 3 2.56729 3.01704 2.5058 3.05033C2.40244 3.10666 2.32648 3.20439 2.29773 3.31981C2.10607 4.08501 2 4.9092 2 5.77039C2 9.76327 4.23851 13 7.00004 13C9.76149 13 12 9.76327 12 5.77039ZM4.00224 6.66893C4.00224 6.31095 4.42699 6.02082 4.95105 6.02082C5.47508 6.02082 5.89983 6.64547 5.89983 7.00345C5.89983 7.36136 5.47508 7.31704 4.95105 7.31704C4.42699 7.31704 4.00224 7.02685 4.00224 6.66893ZM7.00004 11.6332C5.87079 11.6332 4.95537 10.7051 4.95537 9.56026C4.95537 9.41108 4.97521 9.26759 5.00742 9.12848C5.01627 9.09046 5.04423 9.05967 5.08097 9.04709C5.11778 9.03486 5.15829 9.04274 5.18785 9.0678C5.57735 9.39963 6.23994 9.6201 7 9.6201C7.76006 9.6201 8.42265 9.39963 8.81212 9.0678C8.84171 9.04246 8.88222 9.03461 8.919 9.04709C8.95577 9.05939 8.98369 9.09046 8.99255 9.12848C9.02476 9.26759 9.04463 9.41108 9.04463 9.56026C9.04466 10.7051 8.12921 11.6332 7.00004 11.6332ZM8.10017 7.00345C8.10017 6.64547 8.52492 6.02082 9.04898 6.02082C9.57301 6.02082 9.99776 6.31095 9.99776 6.66893C9.99776 7.02685 9.57301 7.31704 9.04898 7.31704C8.52492 7.31704 8.10017 7.36136 8.10017 7.00345Z" fill="#495057"/>
</g>
<defs>
<clipPath id="clip0">
<rect width="20" height="20" fill="white"/>
</clipPath>
</defs>
</svg>
