<svg width="14" height="14" viewBox="0 0 14 14" fill="none" xmlns="http://www.w3.org/2000/svg">
<g clip-path="url(#clip0)">
<path d="M1.84617 2.50181C1.88992 2.51279 1.92995 2.53548 1.96186 2.56736L5.52648 6.13204L6.1715 5.48709L2.60681 1.9224C2.57484 1.89046 2.55225 1.8503 2.54121 1.80642L2.31685 0.912089L0.82961 0.0618286L0.101318 0.790089L0.951835 2.27836L1.84617 2.50181Z" fill="#495057"/>
<path d="M5.01574 10.6329L10.6722 4.97636C10.7341 4.91433 10.824 4.88947 10.909 4.91062C11.6538 5.1015 12.4448 4.9361 13.051 4.4632C13.6572 3.99027 14.0098 3.263 14.0057 2.49423C14.0057 2.4474 14.0044 2.40023 14.0013 2.35264L12.6857 3.66812C12.619 3.73484 12.5202 3.75824 12.4306 3.72835L10.9342 3.2295C10.8597 3.20482 10.8013 3.14638 10.7764 3.07194L10.2777 1.57554C10.2477 1.48606 10.2711 1.38716 10.3379 1.32037L11.6535 0.0047958C10.8613 -0.044491 10.0932 0.288355 9.58718 0.899895C9.08123 1.51156 8.89839 2.32838 9.09518 3.09728C9.1165 3.18242 9.09166 3.27228 9.02964 3.33428L3.37329 8.99048C3.31124 9.05202 3.22143 9.07699 3.13637 9.05615C2.93945 9.00558 2.73692 8.97937 2.5335 8.97857C1.45941 8.9715 0.499707 9.64862 0.146061 10.6631C-0.207392 11.6774 0.123626 12.8044 0.969559 13.4664C1.81549 14.1285 2.98896 14.1791 3.88866 13.5921C4.78842 13.0052 5.21503 11.9109 4.94988 10.8698C4.92879 10.7848 4.95372 10.6948 5.01574 10.6329ZM3.14056 12.4702H1.92664L1.32794 11.4726L1.92664 10.4749H3.14056L3.73913 11.4726L3.14056 12.4702Z" fill="#495057"/>
<path d="M11.9609 13.8698C12.5165 14.0787 13.1428 13.9432 13.5625 13.5236C13.9822 13.1039 14.1177 12.4775 13.9087 11.9221L11.9609 13.8698Z" fill="#495057"/>
<path d="M13.5623 11.3818L10.7612 8.57965C10.4522 8.83936 9.99598 8.81961 9.71041 8.53439C9.42481 8.24924 9.40468 7.79312 9.66394 7.48384L9.26726 7.08667L7.12598 9.22804L7.52506 9.6271C7.83403 9.36739 8.29034 9.38707 8.57575 9.67219C8.86132 9.95741 8.88158 10.4136 8.62228 10.7229L11.421 13.5231C11.4515 13.5536 11.4837 13.5819 11.5163 13.6094L13.6487 11.477C13.6212 11.4444 13.5928 11.4123 13.5623 11.3818Z" fill="#495057"/>
</g>
<defs>
<clipPath id="clip0">
<rect width="14" height="14" fill="white"/>
</clipPath>
</defs>
</svg>
