<svg width="14" height="13" viewBox="0 0 14 13" fill="none" xmlns="http://www.w3.org/2000/svg">
<circle cx="11.5" cy="11.5" r="1.5" fill="#495057"/>
<circle cx="4.5" cy="11.5" r="1.5" fill="#495057"/>
<path d="M2.5 2H12.8195C13.4375 2 13.9075 2.55487 13.8059 3.1644L13.1258 7.24548C13.0515 7.69082 12.6881 8.03119 12.2389 8.07611L3 9L2.5 2Z" fill="#495057"/>
<path d="M0 0.5C0 0.223858 0.223858 0 0.5 0H2.09501C2.60876 0 3.03893 0.389294 3.09005 0.900496L3.5 5L3.86319 9.53987C3.88398 9.79972 4.10092 10 4.3616 10H11.5V11H3.91404C3.39649 11 2.96446 10.6051 2.91807 10.0896L2.14097 1.45518C2.11777 1.19745 1.90175 1 1.64298 1H0.5C0.223858 1 0 0.776142 0 0.5Z" fill="#495057"/>
</svg>
