<svg width="14" height="14" viewBox="0 0 14 14" fill="none" xmlns="http://www.w3.org/2000/svg">
<g clip-path="url(#clip0)">
<path d="M10.2062 0.120104C10.3664 -0.0400754 10.6261 -0.0400754 10.7863 0.120104L13.8799 3.21369C14.0401 3.37387 14.0401 3.63356 13.8799 3.79374L13.0098 4.66382L9.33618 0.990182L10.2062 0.120104Z" fill="#495057"/>
<path d="M0.120135 10.2062C-0.0400449 10.3664 -0.0400449 10.6261 0.120135 10.7862L3.21372 13.8798C3.3739 14.04 3.63359 14.04 3.79377 13.8798L4.66385 13.0098L0.990213 9.33612L0.120135 10.2062Z" fill="#495057"/>
<path d="M6.11401 12.7197L6.69405 12.1397C6.85423 11.9795 6.85423 11.7198 6.69405 11.5597L2.44038 7.30599C2.2802 7.14581 2.02051 7.14581 1.86033 7.30599L1.28029 7.88603C1.12011 8.04621 1.12011 8.30589 1.28029 8.46607L5.53394 12.7197C5.69412 12.8799 5.95383 12.8799 6.11401 12.7197Z" fill="#495057"/>
<path d="M13.8798 1.57026C14.0399 1.41008 14.0399 1.15039 13.8798 0.990213L13.0097 0.120135C12.8495 -0.0400449 12.5899 -0.0400449 12.4297 0.120135L12.188 0.361826L13.6381 1.81195L13.8798 1.57026Z" fill="#495057"/>
<path d="M0.120135 12.4298C-0.0400449 12.5899 -0.0400449 12.8496 0.120135 13.0098L0.990213 13.8799C1.15039 14.04 1.41008 14.04 1.57026 13.8799L1.81195 13.6382L0.361826 12.188L0.120135 12.4298Z" fill="#495057"/>
<path d="M4.4209 8.12756L8.1259 4.42256L9.57581 5.87246L5.8708 9.57747L4.4209 8.12756Z" fill="#495057"/>
<path d="M12.7197 6.11392L12.1396 6.69396C11.9795 6.85414 11.7198 6.85414 11.5596 6.69396L7.30593 2.44032C7.14575 2.28014 7.14575 2.02045 7.30593 1.86027L7.88597 1.28023C8.04615 1.12005 8.30583 1.12005 8.46601 1.28023L12.7197 5.53388C12.8799 5.69406 12.8799 5.95377 12.7197 6.11392Z" fill="#495057"/>
</g>
<defs>
<clipPath id="clip0">
<rect width="14" height="14" fill="white"/>
</clipPath>
</defs>
</svg>
