<svg width="12" height="14" viewBox="0 0 12 14" fill="none" xmlns="http://www.w3.org/2000/svg">
<path fill-rule="evenodd" clip-rule="evenodd" d="M1 0C0.447715 0 0 0.447716 0 1V12H12V1C12 0.447715 11.5523 0 11 0H1ZM0 13C0 13.5523 0.447715 14 1 14H11C11.5523 14 12 13.5523 12 13H0ZM7.33334 8.49073C6.9795 8.80743 6.51224 9 6 9C4.89543 9 4 8.10457 4 7C4 5.89543 4.89543 5 6 5C6.51224 5 6.9795 5.19257 7.33334 5.50927C7.12875 5.87548 7 6.40767 7 7C7 7.59233 7.12875 8.12452 7.33334 8.49073ZM9 7C9 8.65685 7.65685 10 6 10C4.34315 10 3 8.65685 3 7C3 5.34315 4.34315 4 6 4C7.65685 4 9 5.34315 9 7ZM10 1H8V2H10V1ZM3 1.5C3 1.77614 2.77614 2 2.5 2C2.22386 2 2 1.77614 2 1.5C2 1.22386 2.22386 1 2.5 1C2.77614 1 3 1.22386 3 1.5ZM4.5 2C4.77614 2 5 1.77614 5 1.5C5 1.22386 4.77614 1 4.5 1C4.22386 1 4 1.22386 4 1.5C4 1.77614 4.22386 2 4.5 2Z" fill="#495057"/>
</svg>
