<svg width="24" height="24" viewBox="0 0 24 24" fill="none" xmlns="http://www.w3.org/2000/svg">
<g opacity="0.54">
<path d="M8 10.1451C8 9.74729 8.15144 9.36516 8.42346 9.07163C9.14109 8.29726 10.5261 6.78461 10.6 6.56579C10.7 6.26974 10.6 4 11.8 4C13 4 13.6 5.38158 13.6 6.17105C13.6 7.75 12.8 9.52632 12.8 9.52632H18.4C19.2837 9.52632 20 10.2332 20 11.1053V11.9771C20 12.1834 19.9591 12.3876 19.8795 12.5783L17.608 18.0222C17.3611 18.6139 16.7769 19 16.1285 19H9.6C8.71634 19 8 18.2931 8 17.4211V10.1451Z" fill="white"/>
<path d="M4 10.7105C4 10.0564 4.53726 9.52625 5.2 9.52625C5.86274 9.52625 6.4 10.0564 6.4 10.7105V17.8157C6.4 18.4697 5.86274 18.9999 5.2 18.9999C4.53726 18.9999 4 18.4697 4 17.8157V10.7105Z" fill="white"/>
</g>
</svg>
