<svg width="24" height="24" viewBox="0 0 24 24" fill="none" xmlns="http://www.w3.org/2000/svg">
<mask id="path-2-inside-1" fill="white">
<rect x="4" y="9.00037" width="16" height="10" rx="1"/>
</mask>
<rect x="4" y="9.00037" width="16" height="10" rx="1" stroke="#495057" stroke-width="4" mask="url(#path-2-inside-1)"/>
<path d="M16 13.0004L16 15.0004H14V16.0004H16C16.5523 16.0004 17 15.5527 17 15.0004V13.0004C17 12.4481 16.5523 12.0004 16 12.0004H14V13.0004H16Z" fill="#495057"/>
<path d="M8 13.0004L8 15.0004H10V16.0004H8C7.44772 16.0004 7 15.5527 7 15.0004V13.0004C7 12.4481 7.44772 12.0004 8 12.0004H10V13.0004H8Z" fill="#495057"/>
<mask id="path-5-inside-2" fill="white">
<path d="M6 8.00037C6 7.44808 6.44772 7.00037 7 7.00037H17C17.5523 7.00037 18 7.44808 18 8.00037H6Z"/>
</mask>
<path d="M7 9.00037H17V5.00037H7V9.00037ZM18 6.00037H6V10.0004H18V6.00037ZM17 9.00037C16.4477 9.00037 16 8.55265 16 8.00037H20C20 6.34351 18.6569 5.00037 17 5.00037V9.00037ZM7 5.00037C5.34315 5.00037 4 6.34351 4 8.00037H8C8 8.55265 7.55228 9.00037 7 9.00037V5.00037Z" fill="#495057" mask="url(#path-5-inside-2)"/>
<mask id="path-7-inside-3" fill="white">
<path d="M8 6.00037C8 5.44808 8.44772 5.00037 9 5.00037H15C15.5523 5.00037 16 5.44808 16 6.00037H8Z"/>
</mask>
<path d="M9 7.00037H15V3.00037H9V7.00037ZM16 4.00037H8V8.00037H16V4.00037ZM15 7.00037C14.4477 7.00037 14 6.55265 14 6.00037H18C18 4.34351 16.6569 3.00037 15 3.00037V7.00037ZM9 3.00037C7.34315 3.00037 6 4.34351 6 6.00037H10C10 6.55265 9.55228 7.00037 9 7.00037V3.00037Z" fill="#495057" mask="url(#path-7-inside-3)"/>
</svg>
