<svg width="16" height="16" viewBox="0 0 16 16" fill="none" xmlns="http://www.w3.org/2000/svg">
<path d="M3.5 12C3.5 10.067 5.067 8.5 7 8.5H9C10.933 8.5 12.5 10.067 12.5 12V13C12.5 13.2761 12.2761 13.5 12 13.5H4C3.72386 13.5 3.5 13.2761 3.5 13V12Z" stroke="#495057"/>
<path d="M5 12.5C5 12.2239 5.22386 12 5.5 12C5.77614 12 6 12.2239 6 12.5V13.5C6 13.7761 5.77614 14 5.5 14C5.22386 14 5 13.7761 5 13.5V12.5Z" fill="#495057"/>
<path d="M10 12.5C10 12.2239 10.2239 12 10.5 12C10.7761 12 11 12.2239 11 12.5V13.5C11 13.7761 10.7761 14 10.5 14C10.2239 14 10 13.7761 10 13.5V12.5Z" fill="#495057"/>
<path d="M10 4.49999C10 5.60456 9.10457 6.49999 8 6.49999C6.89543 6.49999 6 5.60456 6 4.49999C6 3.39542 6.89543 2.49999 8 2.49999C9.10457 2.49999 10 3.39542 10 4.49999Z" stroke="#495057"/>
</svg>
