<svg width="24" height="24" viewBox="0 0 24 24" fill="none" xmlns="http://www.w3.org/2000/svg">
<path fill-rule="evenodd" clip-rule="evenodd" d="M19.001 11.2572L11.6714 18.5868L5.41421 12.3295L12.7437 5H19.001V11.2572ZM3.29289 11.6224C2.90237 12.0129 2.90237 12.6461 3.29289 13.0366L10.9643 20.7081C11.3549 21.0986 11.988 21.0986 12.3786 20.7081L20.7081 12.3786C20.8956 12.191 21.001 11.9367 21.001 11.6715V4C21.001 3.44772 20.5532 3 20.001 3H12.3295C12.0643 3 11.8099 3.10536 11.6224 3.29289L3.29289 11.6224ZM15.5 10C16.3284 10 17 9.32843 17 8.5C17 7.67157 16.3284 7 15.5 7C14.6716 7 14 7.67157 14 8.5C14 9.32843 14.6716 10 15.5 10Z" fill="#495057"/>
</svg>
