<svg width="24" height="24" viewBox="0 0 24 24" fill="none" xmlns="http://www.w3.org/2000/svg">
<path fill-rule="evenodd" clip-rule="evenodd" d="M4.29289 13.9141C3.90237 13.5236 3.90237 12.8904 4.29289 12.4999L12.4999 4.29289C12.6874 4.10536 12.9417 4 13.207 4H18.9997C19.552 4 19.9997 4.44772 19.9997 5V10.7928C19.9997 11.058 19.8944 11.3123 19.7068 11.4999L11.4999 19.7068C11.1093 20.0974 10.4762 20.0974 10.0856 19.7068L4.29289 13.9141ZM16.4094 9.1293C17.2593 9.1293 17.9482 8.44036 17.9482 7.5905C17.9482 6.74064 17.2593 6.05169 16.4094 6.05169C15.5596 6.05169 14.8706 6.74064 14.8706 7.5905C14.8706 8.44036 15.5596 9.1293 16.4094 9.1293Z" fill="white"/>
</svg>
