<svg width="20" height="20" viewBox="0 0 20 20" fill="none" xmlns="http://www.w3.org/2000/svg">
<g clip-path="url(#clip0)">
<g clip-path="url(#clip1)">
<path d="M16.6358 14.9034L11.1462 9.41375L4.73242 3H4.23119L4.12884 3.26007C3.85871 3.9465 3.74329 4.64858 3.79511 5.29031C3.85417 6.02181 4.13207 6.65512 4.5988 7.12185L9.60571 12.1288L10.2661 11.4684L14.895 16.6443C15.3555 17.1048 16.148 17.1322 16.6358 16.6443C17.1158 16.1643 17.1158 15.3834 16.6358 14.9034Z" fill="#495057"/>
<path d="M7.2855 10.9692L3.3641 14.8906C2.88417 15.3706 2.88417 16.1515 3.3641 16.6315C3.82003 17.0874 4.60876 17.1277 5.10494 16.6315L9.02637 12.7101L7.2855 10.9692Z" fill="#495057"/>
<path d="M16.4054 5.33092L14.1809 7.55534L13.6006 6.97505L15.8251 4.75061L15.2448 4.17032L13.0204 6.39473L12.4401 5.81444L14.6645 3.59003L14.0843 3.00977L11.1828 5.91121C10.8279 6.26616 10.6159 6.73746 10.5859 7.23834C10.5784 7.36524 10.5496 7.49007 10.5019 7.60879L12.3867 9.49357C12.5054 9.4458 12.6302 9.41706 12.7571 9.40949C13.258 9.3796 13.7293 9.1676 14.0843 8.81266L16.9857 5.91124L16.4054 5.33092Z" fill="#495057"/>
</g>
</g>
<defs>
<clipPath id="clip0">
<rect width="20" height="20" fill="white"/>
</clipPath>
<clipPath id="clip1">
<rect x="3" y="3" width="14" height="14" fill="white"/>
</clipPath>
</defs>
</svg>
