<svg width="24" height="24" viewBox="0 0 24 24" fill="none" xmlns="http://www.w3.org/2000/svg">
<g opacity="0.54">
<circle cx="12" cy="12" r="9" fill="#495057"/>
</g>
<path d="M13.123 14.7593H11.3936V16H10.04V14.7593H8.93896V13.6689H10.04V13.0942H8.93896V12.0039H10.04V8.17969H13.0317C13.8947 8.17969 14.584 8.40527 15.0996 8.85645C15.6152 9.30404 15.873 9.90023 15.873 10.645C15.873 11.4041 15.6278 12.0003 15.1372 12.4336C14.6466 12.8633 13.9645 13.0835 13.0908 13.0942H11.3936V13.6689H13.123V14.7593ZM11.3936 12.0039H13.0103C13.4972 12.0039 13.8696 11.8911 14.1274 11.6655C14.3853 11.4399 14.5142 11.1034 14.5142 10.6558C14.5142 10.2547 14.387 9.92708 14.1328 9.67285C13.8822 9.41862 13.5348 9.28613 13.0908 9.27539H11.3936V12.0039Z" fill="white"/>
</svg>
