<svg width="24" height="24" viewBox="0 0 24 24" fill="none" xmlns="http://www.w3.org/2000/svg">
<path opacity="0.54" fill-rule="evenodd" clip-rule="evenodd" d="M16.1517 14.6918H15.38L15.1117 14.4255C16.0594 13.3204 16.6358 11.8877 16.6358 10.3179C16.6358 6.82848 13.8073 4.00001 10.3179 4.00001C6.82847 4.00001 4 6.82848 4 10.3179C4 13.8073 6.82847 16.6358 10.3179 16.6358C11.8877 16.6358 13.3194 16.0604 14.4245 15.1137L14.6928 15.38V16.1498L19.5508 21.001L21 19.5517L16.1517 14.6918ZM10.3179 14.6918C7.90154 14.6918 5.94397 12.7343 5.94397 10.3179C5.94397 7.90252 7.90154 5.94397 10.3179 5.94397C12.7333 5.94397 14.6918 7.90252 14.6918 10.3179C14.6918 12.7343 12.7333 14.6918 10.3179 14.6918Z" fill="#495057"/>
</svg>
