<svg width="24" height="24" viewBox="0 0 24 24" fill="none" xmlns="http://www.w3.org/2000/svg">
<g>
<path fill-rule="evenodd" clip-rule="evenodd" d="M9.78412 3.40265C9.83057 3.1686 10.0359 3 10.2745 3H13.7255C13.9641 3 14.1694 3.1686 14.2159 3.40265L14.5324 4.99706C14.5662 5.16736 14.6864 5.30679 14.8468 5.3731C15.4129 5.60699 15.9437 5.9055 16.4267 6.26465C16.564 6.36682 16.7423 6.39971 16.9044 6.34476L18.4785 5.81133C18.703 5.73524 18.9501 5.8273 19.0701 6.03176L20.7879 8.95805C20.9106 9.16707 20.8657 9.43399 20.6814 9.59139L19.4384 10.6529C19.3051 10.7667 19.2424 10.9419 19.2655 11.1156C19.3041 11.4054 19.3274 11.6997 19.3274 12C19.3274 12.3003 19.3041 12.5946 19.2655 12.8844C19.2424 13.0581 19.3051 13.2333 19.4384 13.3471L20.6814 14.4086C20.8657 14.566 20.9106 14.8329 20.7879 15.0419L19.0701 17.9682C18.9501 18.1727 18.703 18.2648 18.4785 18.1887L16.9044 17.6552C16.7423 17.6003 16.564 17.6332 16.4267 17.7353C15.9437 18.0945 15.4129 18.393 14.8468 18.6269C14.6864 18.6932 14.5662 18.8326 14.5324 19.0029L14.2159 20.5973C14.1694 20.8314 13.9641 21 13.7254 21H10.2745C10.0359 21 9.83058 20.8314 9.78412 20.5973L9.46763 19.0029C9.43383 18.8326 9.31361 18.6932 9.15315 18.6269C8.5871 18.393 8.05627 18.0945 7.57334 17.7353C7.43596 17.6332 7.25775 17.6003 7.0956 17.6552L5.52153 18.1887C5.29699 18.2648 5.04988 18.1727 4.92986 17.9682L3.21208 15.0419C3.08938 14.8329 3.13426 14.566 3.31858 14.4086L4.56162 13.3471C4.6949 13.2333 4.75765 13.0581 4.73452 12.8844C4.69593 12.5946 4.67263 12.3003 4.67263 12C4.67263 11.6997 4.69593 11.4054 4.73452 11.1156C4.75765 10.9419 4.6949 10.7667 4.56162 10.6529L3.31858 9.59139C3.13426 9.43399 3.08938 9.16707 3.21208 8.95805L4.92986 6.03176C5.04988 5.8273 5.29699 5.73524 5.52153 5.81133L7.0956 6.34476C7.25775 6.39971 7.43596 6.36682 7.57334 6.26465C8.05627 5.9055 8.5871 5.60699 9.15315 5.3731C9.31361 5.30679 9.43383 5.16736 9.46763 4.99706L9.78412 3.40265ZM12 15C13.6569 15 15 13.6569 15 12C15 10.3431 13.6569 9 12 9C10.3431 9 9 10.3431 9 12C9 13.6569 10.3431 15 12 15Z" fill="white"/>
</g>
</svg>
