<svg width="24" height="24" viewBox="0 0 24 24" fill="none" xmlns="http://www.w3.org/2000/svg">
<path d="M7.68377 4.94868L8.07673 5.07967L8.44721 4.89443L10 4.11803L11.5528 4.89443L12 5.11803L12.4472 4.89443L14 4.11803L15.5528 4.89443L15.9233 5.07967L16.3162 4.94868L18 4.38743V19.6126L16.3162 19.0513L15.9233 18.9203L15.5528 19.1056L14 19.882L12.4472 19.1056L12 18.882L11.5528 19.1056L10 19.882L8.44721 19.1056L8.07673 18.9203L7.68377 19.0513L6 19.6126V4.38743L7.68377 4.94868Z" stroke="#495057" stroke-width="2"/>
<path d="M9 14H15V15H9V14Z" fill="#495057"/>
<path d="M9 12H15V13H9V12Z" fill="#495057"/>
<path d="M9 9H13V10H9V9Z" fill="#495057"/>
</svg>
