<svg width="24" height="24" viewBox="0 0 24 24" fill="none" xmlns="http://www.w3.org/2000/svg">
<g opacity="0.54">
<path d="M7 15C7 13.3431 8.34315 12 10 12H14C15.6569 12 17 13.3431 17 15V18C17 18.5523 16.5523 19 16 19H8C7.44772 19 7 18.5523 7 18V15Z" fill="white"/>
<path d="M14.5 7.5C14.5 8.88071 13.3807 10 12 10C10.6193 10 9.5 8.88071 9.5 7.5C9.5 6.11929 10.6193 5 12 5C13.3807 5 14.5 6.11929 14.5 7.5Z" fill="white"/>
<path d="M21 13.8C21 12.8059 20.1941 12 19.2 12H17C18.5 13 18.5 14 18.5 17H20.4C20.7314 17 21 16.7314 21 16.4V13.8Z" fill="white"/>
<path d="M16.5 8.5C16.5 9.32843 17.1716 10 18 10C18.8284 10 19.5 9.32843 19.5 8.5C19.5 7.67157 18.8284 7 18 7C17.1716 7 16.5 7.67157 16.5 8.5Z" fill="white"/>
<path d="M3 13.8C3 12.8059 3.80589 12 4.8 12H7C5.5 13 5.5 14 5.5 17H3.6C3.26863 17 3 16.7314 3 16.4V13.8Z" fill="white"/>
<path d="M7.5 8.5C7.5 9.32843 6.82843 10 6 10C5.17157 10 4.5 9.32843 4.5 8.5C4.5 7.67157 5.17157 7 6 7C6.82843 7 7.5 7.67157 7.5 8.5Z" fill="white"/>
</g>
</svg>
