<svg width="24" height="24" viewBox="0 0 24 24" fill="none" xmlns="http://www.w3.org/2000/svg">
<g opacity="0.54">
<path d="M9 18H15L12 21L9 18Z" fill="white"/>
<path fill-rule="evenodd" clip-rule="evenodd" d="M6 4H18V15C18 15.5523 17.5523 16 17 16H7C6.44772 16 6 15.5523 6 15V4ZM15 5C15 6.65685 13.6569 8 12 8C10.3431 8 9 6.65685 9 5H15ZM12 12C12.5523 12 13 11.5523 13 11C13 10.4477 12.5523 10 12 10C11.4477 10 11 10.4477 11 11C11 11.5523 11.4477 12 12 12Z" fill="white"/>
<rect x="3" y="4" width="18" height="1" rx="0.5" fill="white"/>
</g>
</svg>
