<svg width="23" height="16" viewBox="0 0 23 16" fill="none" xmlns="http://www.w3.org/2000/svg">
<path opacity="0.32" d="M3.98354 1.81067H0L4.52675 15.572H7.78601L10.5021 7.78598L13.2181 15.572H16.4774L21.1852 1.81067H17.2016L14.7572 9.41561L12.1317 1.81067H8.87243L6.33745 9.41561L3.98354 1.81067Z" fill="white"/>
<path opacity="0.32" d="M5.4321 0.362122H1.44856L5.97531 14.1234H9.23457L11.9506 6.33743L14.6667 14.1234H17.9259L22.6337 0.362122H18.6502L16.2058 7.96706L13.5802 0.362122H10.321L7.78601 7.96706L5.4321 0.362122Z" fill="white"/>
<path d="M3.98354 0.362122H0L4.52675 14.1234H7.78601L10.5021 6.33743L13.2181 14.1234H16.4774L21.1852 0.362122H17.2016L14.7572 7.96706L12.1317 0.362122H8.87243L6.33745 7.96706L3.98354 0.362122Z" fill="white"/>
</svg>
