<svg width="128" height="128" viewBox="0 0 128 128" fill="none" xmlns="http://www.w3.org/2000/svg">
<path fill-rule="evenodd" clip-rule="evenodd" d="M122.869 5.1308H2.97046V125.03H122.869V5.1308ZM0 2.16034V128H125.84V2.16034H0Z" fill="#FC40B0"/>
<path fill-rule="evenodd" clip-rule="evenodd" d="M125.03 2.97046H5.13086V122.869H125.03V2.97046ZM2.1604 0V125.84H128V0H2.1604Z" fill="#3FD631"/>
<path fill-rule="evenodd" clip-rule="evenodd" d="M122.869 2.97046H2.97046V122.869H122.869V2.97046ZM0 0V125.84H125.84V0H0Z" fill="black"/>
<path fill-rule="evenodd" clip-rule="evenodd" d="M62.9198 104.236C66.4081 104.236 69.5102 102.624 71.4851 100.122L67.517 96.8156C66.6058 98.3549 65.0083 99.3755 63.1899 99.3755C60.3562 99.3755 58.0591 96.897 58.0591 93.8397C58.0591 90.7823 60.3562 88.3038 63.1899 88.3038C65.0082 88.3038 66.6056 89.3243 67.5169 90.8635L71.4874 87.29C69.5127 84.7865 66.4095 83.173 62.9198 83.173C56.9542 83.173 52.1182 87.8882 52.1182 93.7046C52.1182 99.5211 56.9542 104.236 62.9198 104.236ZM16.7426 83.7131H29.0295C31.7886 83.7131 34.0253 85.9498 34.0253 88.7089C34.0253 90.6993 32.8613 92.4179 31.1768 93.2209C33.3102 93.9898 34.8355 96.032 34.8355 98.4304C34.8355 101.488 32.357 103.966 29.2996 103.966L29.2903 103.966H16.7426V83.7131ZM73.7215 93.7046L73.7215 93.735V93.6743L73.7215 93.7046ZM26.7342 88.0338H22.1434V91.8143H26.7342C27.7781 91.8143 28.6245 90.968 28.6245 89.9241C28.6245 88.8801 27.7781 88.0338 26.7342 88.0338ZM22.1434 95.5949H27.4093C28.5278 95.5949 29.4346 96.5017 29.4346 97.6203C29.4346 98.7388 28.5278 99.6456 27.4093 99.6456H22.1434V95.5949ZM79.6624 103.966H73.9915V83.7131H79.6624V91.8144L86.4135 83.7131H93.1645L85.4683 92.4895L93.4346 103.966H86.6835L81.5527 96.4051L79.6624 98.5654V103.966ZM34.8354 93.1646L52.9283 83.7131C51.6681 85.0183 49.1477 88.5738 49.1477 93.1646H34.8354ZM52.9283 102.616C51.6681 101.311 49.1477 97.7553 49.1477 93.1646H34.8354L52.9283 102.616Z" fill="#FC40B0"/>
<path fill-rule="evenodd" clip-rule="evenodd" d="M65.0802 102.076C68.5685 102.076 71.6706 100.464 73.6454 97.9619L69.6774 94.6552C68.7662 96.1946 67.1687 97.2152 65.3503 97.2152C62.5166 97.2152 60.2195 94.7367 60.2195 91.6794C60.2195 88.622 62.5166 86.1435 65.3503 86.1435C67.1686 86.1435 68.766 87.164 69.6772 88.7032L73.6478 85.1297C71.673 82.6261 68.5699 81.0127 65.0802 81.0127C59.1146 81.0127 54.2785 85.7278 54.2785 91.5443C54.2785 97.3608 59.1146 102.076 65.0802 102.076ZM18.903 81.5528H31.1899L31.1899 81.5528C33.949 81.5528 36.1857 83.7895 36.1857 86.5485C36.1857 88.539 35.0216 90.2575 33.3372 91.0606C35.4706 91.8295 36.9958 93.8717 36.9958 96.2701C36.9958 99.3274 34.5173 101.806 31.4599 101.806H18.903V81.5528ZM75.8819 91.5443L75.8819 91.5585V91.5302L75.8819 91.5443ZM28.8945 85.8734H24.3038V89.654H28.8945C29.9385 89.654 30.7848 88.8077 30.7848 87.7637C30.7848 86.7197 29.9385 85.8734 28.8945 85.8734ZM24.3038 93.4346H29.5696C30.6881 93.4346 31.5949 94.3414 31.5949 95.4599C31.5949 96.5785 30.6881 97.4853 29.5696 97.4853H24.3038V93.4346ZM81.8228 101.806H76.1519V81.5528H81.8228V89.654L88.5738 81.5528H95.3249L87.6287 90.3291L95.5949 101.806H88.8439L83.7131 94.2447L81.8228 96.4051V101.806ZM36.9958 91.0042L55.0886 81.5528C53.8284 82.858 51.308 86.4135 51.308 91.0042H36.9958ZM55.0886 100.456C53.8284 99.1505 51.308 95.595 51.308 91.0042H36.9958L55.0886 100.456Z" fill="#3FD631"/>
<path fill-rule="evenodd" clip-rule="evenodd" d="M62.9198 102.076C66.4081 102.076 69.5102 100.464 71.4851 97.9619L67.517 94.6552C66.6058 96.1946 65.0083 97.2152 63.1899 97.2152C60.3562 97.2152 58.0591 94.7367 58.0591 91.6794C58.0591 88.622 60.3562 86.1435 63.1899 86.1435C65.0082 86.1435 66.6056 87.164 67.5169 88.7032L71.4874 85.1297C69.5127 82.6261 66.4095 81.0127 62.9198 81.0127C56.9542 81.0127 52.1182 85.7278 52.1182 91.5443C52.1182 97.3608 56.9542 102.076 62.9198 102.076ZM16.7426 81.5528H29.0295V81.5528C31.7886 81.5528 34.0253 83.7895 34.0253 86.5485C34.0253 88.539 32.8613 90.2575 31.1768 91.0606C33.3102 91.8295 34.8355 93.8717 34.8355 96.2701C34.8355 99.3274 32.357 101.806 29.2996 101.806L29.2996 101.806H16.7426V81.5528ZM73.7215 91.5443L73.7215 91.5746V91.514L73.7215 91.5443ZM26.7342 85.8734H22.1434V89.654H26.7342C27.7781 89.654 28.6245 88.8077 28.6245 87.7637C28.6245 86.7197 27.7781 85.8734 26.7342 85.8734ZM22.1434 93.4346H27.4093C28.5278 93.4346 29.4346 94.3414 29.4346 95.4599C29.4346 96.5785 28.5278 97.4853 27.4093 97.4853H22.1434V93.4346ZM79.6624 101.806H73.9915V81.5528H79.6624V89.654L86.4135 81.5528H93.1645L85.4683 90.3291L93.4346 101.806H86.6835L81.5527 94.2447L79.6624 96.4051V101.806ZM34.8354 91.0042L52.9283 81.5528C51.6681 82.858 49.1477 86.4135 49.1477 91.0042H34.8354ZM52.9283 100.456C51.6681 99.1505 49.1477 95.595 49.1477 91.0042H34.8354L52.9283 100.456Z" fill="black"/>
<path fill-rule="evenodd" clip-rule="evenodd" d="M47.5274 76.692C53.493 76.692 58.3291 71.9768 58.3291 66.1603C58.3291 60.3439 53.493 55.6287 47.5274 55.6287C41.5618 55.6287 36.7257 60.3439 36.7257 66.1603C36.7257 71.9768 41.5618 76.692 47.5274 76.692ZM47.5274 71.5612C50.3611 71.5612 52.6582 69.1431 52.6582 66.1603C52.6582 63.1775 50.3611 60.7595 47.5274 60.7595C44.6938 60.7595 42.3966 63.1775 42.3966 66.1603C42.3966 69.1431 44.6938 71.5612 47.5274 71.5612ZM24.5738 68.8608V76.4219H29.9747V68.8608L37.8059 56.1688H31.5949L27.4093 63.4599L23.2236 56.1688H16.7426L24.5738 68.8608ZM73.9915 68.0506C73.9915 69.2208 73.2894 71.5612 70.481 71.5612C67.6725 71.5612 66.9704 69.2208 66.9704 68.0506V56.1688H61.0295V68.0506C61.0295 70.9311 62.9198 76.692 70.481 76.692C78.0422 76.692 79.9325 70.9311 79.9325 68.0506V56.1688H73.9915V68.0506Z" fill="#FC40B0"/>
<path fill-rule="evenodd" clip-rule="evenodd" d="M49.6877 74.5316C55.6533 74.5316 60.4894 69.8165 60.4894 64C60.4894 58.1835 55.6533 53.4684 49.6877 53.4684C43.7221 53.4684 38.886 58.1835 38.886 64C38.886 69.8165 43.7221 74.5316 49.6877 74.5316ZM49.6878 69.4008C52.5214 69.4008 54.8186 66.9828 54.8186 64C54.8186 61.0172 52.5214 58.5992 49.6878 58.5992C46.8541 58.5992 44.557 61.0172 44.557 64C44.557 66.9828 46.8541 69.4008 49.6878 69.4008ZM26.7342 66.7004V74.2616H32.135V66.7004L39.9662 54.0084H33.7553L29.5696 61.2996L25.384 54.0084H18.903L26.7342 66.7004ZM76.1519 65.8903C76.1519 67.0605 75.4498 69.4008 72.6413 69.4008C69.8329 69.4008 69.1308 67.0605 69.1308 65.8903V54.0084H63.1898V65.8903C63.1898 68.7707 65.0801 74.5316 72.6413 74.5316C80.2025 74.5316 82.0928 68.7707 82.0928 65.8903V54.0084H76.1519V65.8903Z" fill="#3FD631"/>
<path fill-rule="evenodd" clip-rule="evenodd" d="M47.5274 74.5316C53.493 74.5316 58.3291 69.8165 58.3291 64C58.3291 58.1835 53.493 53.4684 47.5274 53.4684C41.5618 53.4684 36.7257 58.1835 36.7257 64C36.7257 69.8165 41.5618 74.5316 47.5274 74.5316ZM47.5274 69.4008C50.3611 69.4008 52.6582 66.9828 52.6582 64C52.6582 61.0172 50.3611 58.5992 47.5274 58.5992C44.6938 58.5992 42.3966 61.0172 42.3966 64C42.3966 66.9828 44.6938 69.4008 47.5274 69.4008ZM24.5738 66.7004V74.2616H29.9747V66.7004L37.8059 54.0084H31.5949L27.4093 61.2996L23.2236 54.0084H16.7426L24.5738 66.7004ZM73.9915 65.8903C73.9915 67.0605 73.2894 69.4008 70.481 69.4008C67.6725 69.4008 66.9704 67.0605 66.9704 65.8903V54.0084H61.0295V65.8903C61.0295 68.7707 62.9198 74.5316 70.481 74.5316C78.0422 74.5316 79.9325 68.7707 79.9325 65.8903V54.0084H73.9915V65.8903Z" fill="black"/>
<path fill-rule="evenodd" clip-rule="evenodd" d="M45.3671 47.5274L54.0084 27.0042H59.4093L68.0506 47.5274H62.1097L60.4894 43.7468H52.9283L51.308 47.5274H45.3671ZM54.5486 39.4261L56.7089 34.0253L58.8692 39.4261H54.5486ZM69.9409 47.5274V27.2743H75.3418L83.443 37.8059V27.2743H89.1139V47.5274H83.9831L75.3418 36.4557V47.5274H69.9409ZM97.2152 47.5274V32.135H91.2742V27.2743H109.097V32.135H102.886V47.5274H97.2152ZM16.7426 27.2743H22.6835L26.1941 38.616L29.9747 27.2743H34.8354L38.7511 38.616L42.3966 27.2743H48.3375L41.3165 47.7975H36.4557L32.4051 36.1856L28.3544 47.7975H23.4937L16.7426 27.2743Z" fill="#FC40B0"/>
<path fill-rule="evenodd" clip-rule="evenodd" d="M47.5274 45.3671L56.1688 24.8439H61.5696L70.211 45.3671H64.27L62.6498 41.5865H55.0886L53.4683 45.3671H47.5274ZM56.7088 37.2658L58.8691 31.865L61.0294 37.2658H56.7088ZM72.1013 45.3671V25.1139H77.5021L85.6034 35.6456V25.1139H91.2742V45.3671H86.1434L77.5021 34.2954V45.3671H72.1013ZM99.3755 45.3671V29.9747H93.4346V25.1139H111.257V29.9747H105.046V45.3671H99.3755ZM18.903 25.1139H24.8439L28.3544 36.4557L32.135 25.1139H36.9958L40.9114 36.4557L44.557 25.1139H50.4979L43.4768 45.6371H38.616L34.5654 34.0253L30.5148 45.6371H25.654L18.903 25.1139Z" fill="#3FD631"/>
<path fill-rule="evenodd" clip-rule="evenodd" d="M45.3671 45.3671L54.0084 24.8439H59.4093L68.0506 45.3671H62.1097L60.4894 41.5865H52.9283L51.308 45.3671H45.3671ZM54.5486 37.2658L56.7089 31.865L58.8692 37.2658H54.5486ZM69.9409 45.3671V25.1139H75.3418L83.443 35.6456V25.1139H89.1139V45.3671H83.9831L75.3418 34.2954V45.3671H69.9409ZM97.2152 45.3671V29.9747H91.2742V25.1139H109.097V29.9747H102.886V45.3671H97.2152ZM16.7426 25.1139H22.6835L26.1941 36.4557L29.9747 25.1139H34.8354L38.7511 36.4557L42.3966 25.1139H48.3375L41.3165 45.6371H36.4557L32.4051 34.0253L28.3544 45.6371H23.4937L16.7426 25.1139Z" fill="black"/>
</svg>
