<svg width="176" height="16" viewBox="0 0 176 16" fill="none" xmlns="http://www.w3.org/2000/svg">
<path opacity="0.32" fill-rule="evenodd" clip-rule="evenodd" d="M154.091 15.5719C156.43 15.5719 158.51 14.4909 159.834 12.8133L157.173 10.5961C156.562 11.6282 155.491 12.3126 154.272 12.3126C152.372 12.3126 150.831 10.6507 150.831 8.60068C150.831 6.55063 152.372 4.88874 154.272 4.88874C155.491 4.88874 156.562 5.57303 157.173 6.60507L159.835 4.20899C158.511 2.53033 156.43 1.44849 154.091 1.44849C150.09 1.44849 146.848 4.61013 146.848 8.51021C146.848 12.4103 150.09 15.5719 154.091 15.5719ZM132.806 8.18578C133.936 7.64729 134.716 6.49497 134.716 5.16036C134.716 3.31032 133.216 1.81057 131.366 1.81057L131.353 1.81059H123.128V15.3908H131.547L131.547 15.3908H131.547C133.597 15.3908 135.259 13.7289 135.259 11.6788C135.259 10.0707 134.237 8.70136 132.806 8.18578ZM161.333 8.51021L161.333 8.52889V8.49154L161.333 8.51021ZM129.827 4.70766H126.749V7.24264H129.827C130.527 7.24264 131.095 6.67517 131.095 5.97515C131.095 5.27514 130.527 4.70766 129.827 4.70766ZM126.749 9.77763H130.28C131.03 9.77763 131.638 10.3856 131.638 11.1356C131.638 11.8857 131.03 12.4937 130.28 12.4937H126.749V9.77763ZM165.317 15.3908H161.514V1.81057H165.317V7.24267L169.844 1.81057H174.37L169.21 7.69534L174.551 15.3908H170.025L166.584 10.3209L165.317 11.7694V15.3908ZM135.259 8.14794L147.391 1.81057C146.546 2.68573 144.856 5.06979 144.856 8.14794H135.259ZM135.259 8.14794H135.259L144.856 8.14802C144.856 11.2262 146.546 13.6102 147.391 14.4854L135.259 8.14802H135.259L135.259 8.14798L135.259 8.14794Z" fill="white"/>
<path opacity="0.32" fill-rule="evenodd" clip-rule="evenodd" d="M155.539 14.1235C157.878 14.1235 159.958 13.0424 161.282 11.3649L158.622 9.14762C158.011 10.1798 156.939 10.8642 155.72 10.8642C153.82 10.8642 152.28 9.20228 152.28 7.15224C152.28 5.10219 153.82 3.4403 155.72 3.4403C156.939 3.4403 158.01 4.1246 158.622 5.15666L161.284 2.76054C159.96 1.08186 157.879 0 155.539 0C151.539 0 148.296 3.16164 148.296 7.06173C148.296 10.9618 151.539 14.1235 155.539 14.1235ZM124.576 0.362199H132.815L132.815 0.362214C134.665 0.362214 136.165 1.86197 136.165 3.71201C136.165 5.04662 135.384 6.19893 134.255 6.73742C135.685 7.25301 136.708 8.62231 136.708 10.2305C136.708 12.2805 135.046 13.9424 132.996 13.9424H132.996L132.996 13.9424H124.576V0.362199ZM162.782 7.06173L162.782 7.07494V7.04852L162.782 7.06173ZM131.276 3.25934H128.198V5.79431H131.276C131.976 5.79431 132.543 5.22684 132.543 4.52683C132.543 3.82681 131.976 3.25934 131.276 3.25934ZM128.198 8.3293H131.728C132.478 8.3293 133.086 8.93731 133.086 9.68732C133.086 10.4373 132.478 11.0453 131.728 11.0453H128.198V8.3293ZM166.765 13.9424H162.963V0.362199H166.765V5.7943L171.292 0.362199H175.819L170.658 6.24697L176 13.9424H171.473L168.033 8.87249L166.765 10.321V13.9424ZM136.708 6.69961L148.84 0.362199C147.995 1.23737 146.305 3.62146 146.305 6.69965C146.305 9.77782 147.995 12.1619 148.84 13.0371L136.708 6.69965H136.708L136.708 6.69963L136.708 6.69961H136.708Z" fill="white"/>
<path fill-rule="evenodd" clip-rule="evenodd" d="M154.091 14.1235C156.43 14.1235 158.51 13.0424 159.834 11.3649L157.173 9.14765C156.562 10.1798 155.491 10.8642 154.272 10.8642C152.372 10.8642 150.831 9.20228 150.831 7.15224C150.831 5.10219 152.372 3.4403 154.272 3.4403C155.491 3.4403 156.562 4.12459 157.173 5.15663L159.835 2.76053C158.511 1.08186 156.43 0 154.091 0C150.09 0 146.848 3.16164 146.848 7.06173C146.848 10.9618 150.09 14.1235 154.091 14.1235ZM123.128 0.362199H131.366L131.366 0.362214C133.216 0.362214 134.716 1.86197 134.716 3.71201C134.716 5.04662 133.936 6.19893 132.806 6.73742C134.237 7.25301 135.259 8.62231 135.259 10.2305C135.259 12.2805 133.597 13.9424 131.547 13.9424H131.547L131.547 13.9424H123.128V0.362199ZM161.333 7.06173L161.333 7.08041V7.04305L161.333 7.06173ZM129.827 3.25934H126.749V5.79431H129.827C130.527 5.79431 131.095 5.22684 131.095 4.52683C131.095 3.82681 130.527 3.25934 129.827 3.25934ZM126.749 8.3293H130.28C131.03 8.3293 131.638 8.93731 131.638 9.68732C131.638 10.4373 131.03 11.0453 130.28 11.0453H126.749V8.3293ZM165.317 13.9424H161.514V0.362199H165.317V5.7943L169.844 0.362199H174.37L169.21 6.24697L174.551 13.9424H170.025L166.584 8.87249L165.317 10.321V13.9424ZM135.259 6.69961L147.391 0.362199C146.546 1.23737 144.856 3.62146 144.856 6.69965C144.856 9.7778 146.546 12.1619 147.391 13.0371L135.259 6.69965H135.259L135.259 6.69963L135.259 6.69961H135.259Z" fill="white"/>
<path opacity="0.32" fill-rule="evenodd" clip-rule="evenodd" d="M92.1759 15.5719C96.176 15.5719 99.4187 12.4103 99.4187 8.51021C99.4187 4.61013 96.176 1.44849 92.1759 1.44849C88.1758 1.44849 84.9331 4.61013 84.9331 8.51021C84.9331 12.4103 88.1758 15.5719 92.1759 15.5719ZM92.1759 12.1315C94.076 12.1315 95.6163 10.5102 95.6163 8.51014C95.6163 6.5101 94.076 4.88874 92.1759 4.88874C90.2759 4.88874 88.7356 6.5101 88.7356 8.51014C88.7356 10.5102 90.2759 12.1315 92.1759 12.1315ZM76.785 10.3209V15.5719H80.4064V10.3209L85.6574 1.81057H81.4928L78.6862 6.69946L75.8796 1.81057H71.534L76.785 10.3209ZM109.921 9.77765C109.921 10.5623 109.45 12.1316 107.567 12.1316C105.684 12.1316 105.213 10.5623 105.213 9.77765V1.81057H101.229V9.77765C101.229 11.7091 102.497 15.5719 107.567 15.5719C112.637 15.5719 113.904 11.7091 113.904 9.77765V1.81057H109.921V9.77765Z" fill="white"/>
<path opacity="0.32" fill-rule="evenodd" clip-rule="evenodd" d="M93.6245 14.1235C97.6246 14.1235 100.867 10.9618 100.867 7.06173C100.867 3.16164 97.6246 0 93.6245 0C89.6244 0 86.3817 3.16164 86.3817 7.06173C86.3817 10.9618 89.6244 14.1235 93.6245 14.1235ZM93.6245 10.6831C95.5245 10.6831 97.0648 9.06175 97.0648 7.0617C97.0648 5.06166 95.5245 3.4403 93.6245 3.4403C91.7244 3.4403 90.1842 5.06166 90.1842 7.0617C90.1842 9.06175 91.7244 10.6831 93.6245 10.6831ZM78.2335 8.87249V14.1235H81.8549V8.87249L87.106 0.362199H82.9414L80.1348 5.25109L77.3282 0.362199H72.9825L78.2335 8.87249ZM111.369 8.32928C111.369 9.11391 110.899 10.6832 109.015 10.6832C107.132 10.6832 106.662 9.11391 106.662 8.32928V0.362199H102.678V8.32928C102.678 10.2607 103.945 14.1235 109.015 14.1235C114.085 14.1235 115.353 10.2607 115.353 8.32928V0.362199H111.369V8.32928Z" fill="white"/>
<path fill-rule="evenodd" clip-rule="evenodd" d="M92.1759 14.1235C96.176 14.1235 99.4187 10.9618 99.4187 7.06173C99.4187 3.16164 96.176 0 92.1759 0C88.1758 0 84.9331 3.16164 84.9331 7.06173C84.9331 10.9618 88.1758 14.1235 92.1759 14.1235ZM92.1759 10.6831C94.076 10.6831 95.6163 9.06175 95.6163 7.0617C95.6163 5.06166 94.076 3.4403 92.1759 3.4403C90.2759 3.4403 88.7356 5.06166 88.7356 7.0617C88.7356 9.06175 90.2759 10.6831 92.1759 10.6831ZM76.785 8.87249V14.1235H80.4064V8.87249L85.6574 0.362199H81.4928L78.6862 5.25109L75.8796 0.362199H71.534L76.785 8.87249ZM109.921 8.32928C109.921 9.11391 109.45 10.6832 107.567 10.6832C105.684 10.6832 105.213 9.11391 105.213 8.32928V0.362199H101.229V8.32928C101.229 10.2607 102.497 14.1235 107.567 14.1235C112.637 14.1235 113.904 10.2607 113.904 8.32928V0.362199H109.921V8.32928Z" fill="white"/>
<path opacity="0.32" fill-rule="evenodd" clip-rule="evenodd" d="M19.1934 15.5719L24.9877 1.81055H28.6091L34.4033 15.5719H30.4198L29.3333 13.0369H24.2634L23.177 15.5719H19.1934ZM25.3498 10.1397L26.7984 6.51828L28.2469 10.1397H25.3498ZM35.6708 15.3908V1.81055H39.2922L44.7243 8.87227V1.81055H48.5268V15.3908H45.0864L39.2922 7.96692V15.3908H35.6708ZM53.9588 15.3908V5.06981H49.9753V1.81055H61.9259V5.06981H57.7613V15.3908H53.9588ZM0 1.81057H3.98354L6.33745 9.41551L8.87243 1.81057H12.1317L14.7572 9.41551L17.2016 1.81057H21.1852L16.4774 15.5719H13.2181L10.5021 7.78588L7.78601 15.5719H4.52675L0 1.81057Z" fill="white"/>
<path opacity="0.32" fill-rule="evenodd" clip-rule="evenodd" d="M1.44856 0.362305H5.4321L7.78601 7.96724L10.321 0.362305H13.5802L16.2058 7.96724L18.6502 0.362305H22.6337L17.9259 14.1236H14.6667L11.9506 6.33761L9.23457 14.1236H5.97531L1.44856 0.362305ZM20.642 14.1236L26.4362 0.362321H30.0576L35.8519 14.1236H31.8683L30.7819 11.5887H25.7119L24.6255 14.1236H20.642ZM26.7983 8.6915L28.2469 5.0701L29.6955 8.6915H26.7983ZM37.1193 13.9426V0.362321H40.7407L46.1728 7.42405V0.362321H49.9753V13.9426H46.535L40.7407 6.5187V13.9426H37.1193ZM55.4074 13.9426V3.62158H51.4239V0.362321H63.3745V3.62158H59.2099V13.9426H55.4074Z" fill="white"/>
<path fill-rule="evenodd" clip-rule="evenodd" d="M0 0.362305H3.98354L6.33745 7.96724L8.87243 0.362305H12.1317L14.7572 7.96724L17.2016 0.362305H21.1852L16.4774 14.1236H13.2181L10.5021 6.33761L7.78601 14.1236H4.52675L0 0.362305ZM19.1934 14.1236L24.9877 0.362321H28.6091L34.4033 14.1236H30.4198L29.3333 11.5887H24.2634L23.177 14.1236H19.1934ZM25.3498 8.6915L26.7984 5.0701L28.2469 8.6915H25.3498ZM35.6708 13.9426V0.362321H39.2922L44.7243 7.42405V0.362321H48.5268V13.9426H45.0864L39.2922 6.5187V13.9426H35.6708ZM53.9588 13.9426V3.62158H49.9753V0.362321H61.9259V3.62158H57.7613V13.9426H53.9588Z" fill="white"/>
</svg>
